<svg xmlns="http://www.w3.org/2000/svg" viewBox="0 0 153.5 91.1"><defs><style>.cls-1{fill:#eef6e7;}.cls-2{fill:#9bd19a;}.cls-3,.cls-4,.cls-6{fill:none;stroke-linecap:round;stroke-linejoin:round;stroke-width:0.5px;}.cls-3{stroke:#fff;}.cls-4{stroke:#231f20;}.cls-5{fill:#fff;}.cls-6{stroke:#21231f;}</style></defs><g id="Layer_2" data-name="Layer 2"><g id="content"><polygon class="cls-1" points="0.45 80.24 90.21 91.1 150.38 73.05 22.83 71.57 0.45 80.24"/><polyline class="cls-2" points="97.94 49.45 153.25 74.34 124.3 78.15 97.94 49.45"/><polygon class="cls-3" points="97.94 49.45 153.25 74.34 124.3 78.15 97.94 49.45"/><polyline class="cls-2" points="68.17 51.68 103.28 55.17 67.1 72.25 68.17 51.68"/><polygon class="cls-3" points="68.17 51.68 103.28 55.17 67.1 72.25 68.17 51.68"/><polyline class="cls-2" points="68.17 51.68 48.84 52.42 54.69 61.97 68.17 51.68"/><polygon class="cls-3" points="68.17 51.68 48.84 52.42 54.69 61.97 68.17 51.68"/><polyline class="cls-2" points="8.41 59.49 48.84 45.16 48.84 52.43 8.41 59.49"/><polygon class="cls-3" points="8.41 59.49 48.84 45.16 48.84 52.43 8.41 59.49"/><polyline class="cls-2" points="97.94 49.45 87.85 50.94 103.28 55.17 97.94 49.45"/><polygon class="cls-3" points="97.94 49.45 87.85 50.94 103.28 55.17 97.94 49.45"/><polyline class="cls-2" points="88.75 51.14 80.25 52.88 103.28 55.17 88.75 51.14"/><polygon class="cls-3" points="88.75 51.14 80.25 52.88 103.28 55.17 88.75 51.14"/><polyline class="cls-2" points="68.17 51.68 48.84 45.16 48.84 52.42 68.17 51.68"/><polygon class="cls-3" points="68.17 51.68 48.84 45.16 48.84 52.42 68.17 51.68"/><polyline class="cls-2" points="138.78 56.83 153.25 74.34 97.94 49.45 138.78 56.83"/><polygon class="cls-3" points="138.78 56.83 153.25 74.34 97.94 49.45 138.78 56.83"/><polyline class="cls-2" points="48.84 52.43 8.41 59.49 0.25 71.72 48.84 52.43"/><polygon class="cls-3" points="48.84 52.43 8.41 59.49 0.25 71.72 48.84 52.43"/><polyline class="cls-2" points="54.69 61.97 0.25 71.72 48.84 52.43 54.69 61.97"/><polygon class="cls-3" points="54.69 61.97 0.25 71.72 48.84 52.43 54.69 61.97"/><polyline class="cls-2" points="124.3 78.15 67.1 72.25 103.28 55.17 124.3 78.15"/><polygon class="cls-3" points="124.3 78.15 67.1 72.25 103.28 55.17 124.3 78.15"/><polyline class="cls-2" points="67.1 72.25 54.69 61.97 68.17 51.68 67.1 72.25"/><polygon class="cls-3" points="67.1 72.25 54.69 61.97 68.17 51.68 67.1 72.25"/><polyline class="cls-2" points="0.25 71.72 28.2 74.34 54.69 61.97 0.25 71.72"/><polygon class="cls-3" points="0.25 71.72 28.2 74.34 54.69 61.97 0.25 71.72"/><polyline class="cls-2" points="54.69 61.97 67.1 72.25 28.2 74.34 54.69 61.97"/><polygon class="cls-3" points="54.69 61.97 67.1 72.25 28.2 74.34 54.69 61.97"/><polyline class="cls-2" points="28.2 74.34 124.3 78.15 67.1 72.25 28.2 74.34"/><polygon class="cls-3" points="28.2 74.34 124.3 78.15 67.1 72.25 28.2 74.34"/><line class="cls-4" x1="78.26" y1="2.24" x2="78.04" y2="3.55"/><polyline class="cls-2" points="126.96 51.55 116.08 52.78 132.72 56.27 126.96 51.55"/><polygon class="cls-3" points="126.96 51.55 116.08 52.78 132.72 56.27 126.96 51.55"/><polyline class="cls-5" points="106 6.57 117.07 8.02 128.4 17.77 131.4 22.8 131.89 37.74 132.4 46.77 130.22 51.61 137.83 56.7 137.19 68.05 129.72 69.41 120.01 65.55 118.34 54.66 107.28 49.5 107.28 52.37 103.83 53.67 99.22 53.33 97.97 52.4 94.89 52.12 93.82 53.24 91.62 52.99 92.27 52.57 90.11 50.79 92.27 50.79 94.14 49.37 93.97 48.45 97.05 49.56 97.46 48.45 99.35 49.32 100.97 49.17 97.97 37.83 91.62 31.51 86.51 29.37 81.86 28.64 80.13 29.2 79.89 26.6 81.86 24.86 83.54 25.3 84.23 25.88 86.06 25.88 85.88 23.48 85.12 22.09 86.06 16.09 82.13 12.92 79.35 10.98 79.82 8.14 78.99 8.02 77.66 6 77.94 3.65 78.15 2.38 79.32 1.1 83.61 0.25 90.21 0.55 106 6.57"/><line class="cls-4" x1="81.86" y1="28.64" x2="86.5" y2="29.37"/><polyline class="cls-4" points="80.13 29.2 81.86 28.64 83.54 25.3 81.71 24.86 79.75 26.6"/><line class="cls-4" x1="83.54" y1="25.3" x2="84.22" y2="25.88"/><polyline class="cls-4" points="91.62 31.51 86.51 29.37 85.88 23.48"/><polygon class="cls-4" points="86.06 25.88 84.23 25.88 81.86 28.64 86.06 25.88"/><polygon class="cls-4" points="79.89 26.6 80.13 29.2 80.36 28.94 83.54 25.3 79.89 26.6"/><line class="cls-4" x1="127.01" y1="55.9" x2="120.01" y2="65.55"/><polyline class="cls-4" points="124.7 50.17 127.01 55.9 118.34 54.66 120.01 65.55 129.72 69.41 129.87 69.49 137.19 68.05 137.83 56.7 130.22 51.61 131.1 58.09 137.83 56.7"/><polygon class="cls-4" points="126.21 50.57 129.72 69.41 137.19 68.05 126.21 50.57"/><line class="cls-4" x1="92.27" y1="50.79" x2="94.14" y2="49.37"/><polyline class="cls-4" points="94.43 51.01 90.1 50.79 92.27 52.57"/><polyline class="cls-4" points="94.46 51.17 93.97 48.45 97.05 49.56 97.46 48.45 99.35 49.32"/><polyline class="cls-4" points="103.83 53.67 107.28 49.5 99.22 53.33 101.14 49.17"/><polygon class="cls-4" points="100.97 49.17 96.81 49.56 97.97 52.4 100.97 49.17"/><polyline class="cls-4" points="107.41 49.56 107.28 52.37 103.99 53.67 99.22 53.33 97.97 52.4 94.89 52.12 93.82 53.24 91.62 52.99 96.71 49.73 93.82 53.24"/><line class="cls-4" x1="108.08" y1="25.47" x2="128.4" y2="17.77"/><polyline class="cls-4" points="117.07 8.02 117.07 19.66 106 6.57"/><polyline class="cls-4" points="106 21.51 128.4 17.77 118.34 30 131.4 22.59 118.34 30 107.68 36.37 118.34 54.66"/><line class="cls-4" x1="131.4" y1="22.59" x2="118.34" y2="41.21"/><polyline class="cls-4" points="131.89 37.74 118.34 41.21 124.7 50.17 132.4 46.77 118.34 41.21"/><polyline class="cls-4" points="97.97 37.83 100.97 49.17 107.28 49.5 97.97 37.83 105.6 25.47 107.31 48.68"/><polygon class="cls-4" points="108.1 25 118.34 30 118.34 41.2 107.28 49.5 108.1 25"/><line class="cls-4" x1="86.06" y1="16.1" x2="103.83" y2="17.77"/><polygon class="cls-4" points="97.97 37.83 91.62 31.62 89.06 28.46 98.91 26.6 97.97 37.83"/><polygon class="cls-4" points="89.06 28.46 103.83 17.77 108.1 25 89.06 28.46"/><polyline class="cls-4" points="85.85 16.09 85.12 22.09 89.06 28.46 85.87 15.95"/><path class="cls-4" d="M97,3l9,3.55L117.07,8l11.33,9.75,3,4.82.42,14.89.58,9.29-2.18,4.84-5.52-1.44s-6.52,4.7-6.36,4.49-11.06-5.16-11.06-5.16"/><polygon class="cls-4" points="95.95 3.1 106 21.51 106 6.75 95.95 3.1"/><polyline class="cls-4" points="82.12 12.92 94.98 10.2 103.95 17.77"/><line class="cls-4" x1="88.23" y1="3.77" x2="88.82" y2="3.77"/><polyline class="cls-4" points="93.56 6.85 91.51 7.69 88.22 2.9 93.56 6.85 95.95 2.93"/><polyline class="cls-4" points="92.89 8.69 95.95 8.81 103.83 17.55"/><polygon class="cls-4" points="94.23 6.67 95.95 8.81 97.74 6.57 94.23 6.67"/><polygon class="cls-4" points="93.56 6.85 97.08 5.29 94.58 5.1 93.56 6.85"/><polygon class="cls-4" points="92.89 8.69 93.03 7.18 94.17 6.6 92.89 8.69"/><polyline class="cls-4" points="87.15 2.7 97.05 3.02 90.2 0.55"/><polyline class="cls-4" points="85.83 3.58 94.98 10.2 81.67 8.4 85.84 3.7"/><polyline class="cls-4" points="82.67 5.77 90.21 0.55 83.61 0.25"/><line class="cls-4" x1="80.64" y1="2.55" x2="82.93" y2="5.1"/><polyline class="cls-4" points="79.95 8.4 79.34 10.98 86.06 16.09 94.98 10.2"/><polygon class="cls-4" points="79.82 8.14 82.12 12.92 86.34 8.94 79.82 8.14"/><line class="cls-4" x1="80.63" y1="2.61" x2="81.15" y2="0.78"/><polygon class="cls-4" points="78.99 8.02 81.67 8.4 82.93 5.1 78.99 8.02"/><polyline class="cls-4" points="88.22 3.7 88.22 2.7 87.15 2.73"/><polygon class="cls-4" points="87.15 2.7 86.06 3.58 88.22 3.7 87.15 2.7"/><polygon class="cls-4" points="86.06 3.58 87.03 4.49 88.22 3.7 86.06 3.58"/><polygon class="cls-4" points="79.35 1.03 81.15 0.73 79.5 2.2 79.35 1.03"/><polyline class="cls-4" points="82.93 5.1 81.15 0.73 83.61 0.25 82.93 5.1 81.24 4.61 80.64 2.55"/><polyline class="cls-4" points="81.24 4.69 79.82 3.83 78.15 2.38 79.32 1.1 79.79 3.65"/><polyline class="cls-4" points="78.99 8.02 81.24 4.61 77.66 6"/><polygon class="cls-4" points="79.5 2.2 80.64 2.55 79.79 3.65 79.5 2.2"/><polyline class="cls-4" points="78.15 2.38 77.66 6 78.99 8.02"/><polyline class="cls-5" points="81.13 47.62 80.02 47.8 79.79 46.68 81.13 47.62"/><polygon class="cls-6" points="81.13 47.62 80.02 47.8 79.79 46.68 81.13 47.62"/><polyline class="cls-5" points="79.79 46.68 78.95 48.28 80.02 47.8 79.79 46.68"/><polygon class="cls-6" points="79.79 46.68 78.95 48.28 80.02 47.8 79.79 46.68"/><polyline class="cls-5" points="79.79 46.68 79.1 47.24 78.95 48.28 79.79 46.68"/><polygon class="cls-6" points="79.79 46.68 79.1 47.24 78.95 48.28 79.79 46.68"/><polyline class="cls-5" points="79.79 46.68 80.82 47.05 81.13 47.62 79.79 46.68"/><polygon class="cls-6" points="79.79 46.68 80.82 47.05 81.13 47.62 79.79 46.68"/><polyline class="cls-5" points="82.64 49.89 82.3 49.4 82.08 50.01 82.64 49.89"/><polygon class="cls-6" points="82.64 49.89 82.3 49.4 82.08 50.01 82.64 49.89"/><polyline class="cls-5" points="82.3 49.4 81.86 49.49 82.19 49.7 82.3 49.4"/><polygon class="cls-6" points="82.3 49.4 81.86 49.49 82.19 49.7 82.3 49.4"/><polyline class="cls-5" points="81.86 49.49 82.08 50.01 82.19 49.7 81.86 49.49"/><polygon class="cls-6" points="81.86 49.49 82.08 50.01 82.19 49.7 81.86 49.49"/><polyline class="cls-5" points="84.6 52.83 85.55 52.03 84.19 51.95 84.6 52.83"/><polygon class="cls-6" points="84.6 52.83 85.55 52.03 84.19 51.95 84.6 52.83"/><polyline class="cls-5" points="84.6 52.83 83.77 52.05 84.19 51.95 84.6 52.83"/><polygon class="cls-6" points="84.6 52.83 83.77 52.05 84.19 51.95 84.6 52.83"/><polyline class="cls-5" points="85.55 52.03 85.34 51.33 84.19 51.95 85.55 52.03"/><polygon class="cls-6" points="85.55 52.03 85.34 51.33 84.19 51.95 85.55 52.03"/><polyline class="cls-5" points="85.34 51.33 84.24 51.25 84.19 51.95 85.34 51.33"/><polygon class="cls-6" points="85.34 51.33 84.24 51.25 84.19 51.95 85.34 51.33"/><polyline class="cls-5" points="84.24 51.25 83.77 52.05 84.19 51.95 84.24 51.25"/><polygon class="cls-6" points="84.24 51.25 83.77 52.05 84.19 51.95 84.24 51.25"/><polyline class="cls-5" points="84.24 51.25 82.64 49.89 83.77 52.05 84.24 51.25"/><polygon class="cls-6" points="84.24 51.25 82.64 49.89 83.77 52.05 84.24 51.25"/><polyline class="cls-5" points="82.64 49.89 78.14 50.89 80.94 53.57 82.64 49.89"/><polygon class="cls-6" points="82.64 49.89 78.14 50.89 80.94 53.57 82.64 49.89"/><polyline class="cls-5" points="82.08 50.01 81.13 47.62 80.02 47.8 82.08 50.01"/><polygon class="cls-6" points="82.08 50.01 81.13 47.62 80.02 47.8 82.08 50.01"/><polyline class="cls-5" points="81.86 49.49 84.5 48.92 81.13 47.62 81.86 49.49"/><polygon class="cls-6" points="81.86 49.49 84.5 48.92 81.13 47.62 81.86 49.49"/><polyline class="cls-5" points="82.3 49.4 82.64 49.89 84.5 48.92 82.3 49.4"/><polygon class="cls-6" points="82.3 49.4 82.64 49.89 84.5 48.92 82.3 49.4"/><polyline class="cls-5" points="84.5 48.92 84.24 51.25 82.64 49.89 84.5 48.92"/><polygon class="cls-6" points="84.5 48.92 84.24 51.25 82.64 49.89 84.5 48.92"/><polyline class="cls-5" points="85.34 51.33 84.5 48.92 84.24 51.25 85.34 51.33"/><polygon class="cls-6" points="85.34 51.33 84.5 48.92 84.24 51.25 85.34 51.33"/><polyline class="cls-5" points="85.34 51.33 85.03 48.28 84.5 48.92 85.34 51.33"/><polygon class="cls-6" points="85.34 51.33 85.03 48.28 84.5 48.92 85.34 51.33"/><polyline class="cls-5" points="85.03 48.28 83.4 46.18 84.5 48.92 85.03 48.28"/><polygon class="cls-6" points="85.03 48.28 83.4 46.18 84.5 48.92 85.03 48.28"/><polyline class="cls-5" points="85.25 52.28 84.92 53.13 84.6 52.83 85.25 52.28"/><polygon class="cls-6" points="85.25 52.28 84.92 53.13 84.6 52.83 85.25 52.28"/><polyline class="cls-5" points="84.92 53.13 83.77 52.05 80.94 53.57 84.92 53.13"/><polygon class="cls-6" points="84.92 53.13 83.77 52.05 80.94 53.57 84.92 53.13"/><polyline class="cls-5" points="83.77 52.05 82.64 49.89 80.94 53.57 83.77 52.05"/><polygon class="cls-6" points="83.77 52.05 82.64 49.89 80.94 53.57 83.77 52.05"/><polyline class="cls-5" points="82.08 50.01 80.02 47.8 77.09 49.1 82.08 50.01"/><polygon class="cls-6" points="82.08 50.01 80.02 47.8 77.09 49.1 82.08 50.01"/><polyline class="cls-5" points="77.09 49.1 78.14 50.89 82.08 50.01 77.09 49.1"/><polygon class="cls-6" points="77.09 49.1 78.14 50.89 82.08 50.01 77.09 49.1"/><polyline class="cls-5" points="81.13 47.62 83.4 46.18 84.5 48.92 81.13 47.62"/><polygon class="cls-6" points="81.13 47.62 83.4 46.18 84.5 48.92 81.13 47.62"/><polyline class="cls-5" points="81.13 47.62 79.48 44.36 83.4 46.18 81.13 47.62"/><polygon class="cls-6" points="81.13 47.62 79.48 44.36 83.4 46.18 81.13 47.62"/><polyline class="cls-5" points="80.82 47.05 79.79 46.68 79.48 44.36 80.82 47.05"/><polygon class="cls-6" points="80.82 47.05 79.79 46.68 79.48 44.36 80.82 47.05"/><polyline class="cls-5" points="79.79 46.68 79.1 47.24 79.48 44.36 79.79 46.68"/><polygon class="cls-6" points="79.79 46.68 79.1 47.24 79.48 44.36 79.79 46.68"/><polyline class="cls-5" points="78.95 48.28 79.48 44.37 73.02 46.81 78.95 48.28"/><polygon class="cls-6" points="78.95 48.28 79.48 44.37 73.02 46.81 78.95 48.28"/><polyline class="cls-5" points="80.94 53.57 77.68 55.11 78.14 50.89 80.94 53.57"/><polygon class="cls-6" points="80.94 53.57 77.68 55.11 78.14 50.89 80.94 53.57"/><polyline class="cls-5" points="80.94 53.57 80.39 54.34 77.68 55.11 80.94 53.57"/><polygon class="cls-6" points="80.94 53.57 80.39 54.34 77.68 55.11 80.94 53.57"/><polyline class="cls-5" points="77.68 55.11 75.84 51.95 75.37 56.42 77.68 55.11"/><polygon class="cls-6" points="77.68 55.11 75.84 51.95 75.37 56.42 77.68 55.11"/><polyline class="cls-5" points="75.84 51.95 70.95 48.43 75.37 56.42 75.84 51.95"/><polygon class="cls-6" points="75.84 51.95 70.95 48.43 75.37 56.42 75.84 51.95"/><polyline class="cls-5" points="75.84 51.95 78.14 50.89 77.68 55.11 75.84 51.95"/><polygon class="cls-6" points="75.84 51.95 78.14 50.89 77.68 55.11 75.84 51.95"/><polyline class="cls-5" points="77.09 49.1 75.84 51.95 78.14 50.89 77.09 49.1"/><polygon class="cls-6" points="77.09 49.1 75.84 51.95 78.14 50.89 77.09 49.1"/><polyline class="cls-5" points="77.09 49.1 70.95 48.43 75.84 51.95 77.09 49.1"/><polygon class="cls-6" points="77.09 49.1 70.95 48.43 75.84 51.95 77.09 49.1"/><polyline class="cls-5" points="77.09 49.1 73.02 46.81 78.94 48.28 77.09 49.1"/><polygon class="cls-6" points="77.09 49.1 73.02 46.81 78.94 48.28 77.09 49.1"/><polyline class="cls-5" points="77.09 49.1 70.95 48.43 73.02 46.81 77.09 49.1"/><polygon class="cls-6" points="77.09 49.1 70.95 48.43 73.02 46.81 77.09 49.1"/><polyline class="cls-5" points="79.48 44.36 73.02 41.19 73.02 46.81 79.48 44.36"/><polygon class="cls-6" points="79.48 44.36 73.02 41.19 73.02 46.81 79.48 44.36"/><polyline class="cls-5" points="73.02 41.19 69.06 40.97 73.02 46.81 73.02 41.19"/><polygon class="cls-6" points="73.02 41.19 69.06 40.97 73.02 46.81 73.02 41.19"/><polyline class="cls-5" points="73.02 46.81 62.22 45.8 70.95 48.43 73.02 46.81"/><polygon class="cls-6" points="73.02 46.81 62.22 45.8 70.95 48.43 73.02 46.81"/><polyline class="cls-5" points="69.06 40.97 62.22 45.8 73.02 46.81 69.06 40.97"/><polygon class="cls-6" points="69.06 40.97 62.22 45.8 73.02 46.81 69.06 40.97"/><polyline class="cls-5" points="69.06 40.97 64.5 42.91 62.22 45.8 69.06 40.97"/><polygon class="cls-6" points="69.06 40.97 64.5 42.91 62.22 45.8 69.06 40.97"/><polyline class="cls-5" points="62.22 45.8 57.88 55.59 70.95 48.43 62.22 45.8"/><polygon class="cls-6" points="62.22 45.8 57.88 55.59 70.95 48.43 62.22 45.8"/><polyline class="cls-5" points="74.64 55.11 65.06 51.65 70.95 48.43 74.64 55.11"/><polygon class="cls-6" points="74.64 55.11 65.06 51.65 70.95 48.43 74.64 55.11"/><polyline class="cls-5" points="65.06 51.65 68.53 57.36 74.64 55.11 65.06 51.65"/><polygon class="cls-6" points="65.06 51.65 68.53 57.36 74.64 55.11 65.06 51.65"/><polyline class="cls-5" points="75.12 55.97 71.07 56.42 74.64 55.11 75.12 55.97"/><polygon class="cls-6" points="75.12 55.97 71.07 56.42 74.64 55.11 75.12 55.97"/><polyline class="cls-5" points="77.68 55.11 77.85 56.89 75.37 56.42 77.68 55.11"/><polygon class="cls-6" points="77.68 55.11 77.85 56.89 75.37 56.42 77.68 55.11"/><polyline class="cls-5" points="68.53 57.36 61.9 58.95 65.06 51.65 68.53 57.36"/><polygon class="cls-6" points="68.53 57.36 61.9 58.95 65.06 51.65 68.53 57.36"/><polyline class="cls-5" points="61.9 58.95 57.88 55.59 65.06 51.65 61.9 58.95"/><polygon class="cls-6" points="61.9 58.95 57.88 55.59 65.06 51.65 61.9 58.95"/><polyline class="cls-5" points="57.88 55.59 57.31 57.36 61.9 58.95 57.88 55.59"/><polygon class="cls-6" points="57.88 55.59 57.31 57.36 61.9 58.95 57.88 55.59"/><polyline class="cls-5" points="57.31 57.36 57.67 65.35 61.9 58.95 57.31 57.36"/><polygon class="cls-6" points="57.31 57.36 57.67 65.35 61.9 58.95 57.31 57.36"/><polyline class="cls-5" points="57.31 57.36 52.75 60.45 57.67 65.35 57.31 57.36"/><polygon class="cls-6" points="57.31 57.36 52.75 60.45 57.67 65.35 57.31 57.36"/><polyline class="cls-5" points="52.75 60.45 50.8 64.14 54.01 68.03 52.75 60.45"/><polygon class="cls-6" points="52.75 60.45 50.8 64.14 54.01 68.03 52.75 60.45"/><polyline class="cls-5" points="54.01 68.04 57.67 65.36 52.75 60.45 54.01 68.04"/><polygon class="cls-6" points="54.01 68.04 57.67 65.36 52.75 60.45 54.01 68.04"/><polyline class="cls-5" points="54.01 68.04 52.22 68.04 50.8 64.14 54.01 68.04"/><polygon class="cls-6" points="54.01 68.04 52.22 68.04 50.8 64.14 54.01 68.04"/><polyline class="cls-5" points="52.22 68.04 50.8 66.8 50.8 64.14 52.22 68.04"/><polygon class="cls-6" points="52.22 68.04 50.8 66.8 50.8 64.14 52.22 68.04"/><polyline class="cls-5" points="77.68 55.11 79.1 57.13 77.85 56.89 77.68 55.11"/><polygon class="cls-6" points="77.68 55.11 79.1 57.13 77.85 56.89 77.68 55.11"/><polyline class="cls-5" points="79.1 57.13 77.52 57.61 76.79 56.69 79.1 57.13"/><polygon class="cls-6" points="79.1 57.13 77.52 57.61 76.79 56.69 79.1 57.13"/></g></g></svg>