<svg xmlns="http://www.w3.org/2000/svg" viewBox="0 0 158.3 117.13"><defs><style>.cls-1{fill:#f1eff8;}.cls-2,.cls-4{fill:#a5a2d0;}.cls-3{fill:none;}.cls-3,.cls-4{stroke:#fff;}.cls-3,.cls-6{stroke-linecap:round;stroke-linejoin:round;}.cls-3,.cls-4,.cls-6{stroke-width:0.5px;}.cls-4{stroke-miterlimit:10;}.cls-5,.cls-6{fill:#fff;}.cls-6{stroke:#000;}</style></defs><g id="Layer_2" data-name="Layer 2"><g id="content"><polygon class="cls-1" points="17.69 89.91 142.4 89.41 91.07 117.13 83.82 110.85 26.77 112.38 11.51 109.04 17.69 89.91"/><polyline class="cls-2" points="4.69 104.18 23.42 83.4 42.42 83.64 4.69 104.18"/><polygon class="cls-3" points="4.69 104.18 23.42 83.4 42.42 83.64 4.69 104.18"/><polyline class="cls-2" points="4.69 104.18 42.42 83.64 62.74 98.29 4.69 104.18"/><polygon class="cls-3" points="4.69 104.18 42.42 83.64 62.74 98.29 4.69 104.18"/><polygon class="cls-4" points="23.42 83.4 0.31 87.39 4.69 104.18 23.42 83.4"/><polygon class="cls-4" points="42.42 83.64 79.73 80.54 62.74 98.29 42.42 83.64"/><polygon class="cls-4" points="62.74 98.29 109.62 107.36 79.73 80.54 62.74 98.29"/><polygon class="cls-4" points="79.73 80.54 145.4 76.15 109.62 107.36 79.73 80.54"/><polygon class="cls-4" points="145.4 76.15 157.69 92.44 109.62 107.36 145.4 76.15"/><polygon class="cls-4" points="109.62 107.36 144.28 112.37 157.69 92.44 109.62 107.36"/><polygon class="cls-5" points="29.6 64.9 32.69 64.03 35.76 61.77 34.71 81.47 18.79 81.14 23.81 80.97 19.41 80.52 25.78 69.41 28.38 64.29 30.05 66 29.6 64.9"/><polygon class="cls-5" points="70.78 33.7 103.2 40.49 101.49 71.75 65.06 73.06 49.04 71.63 70.78 33.7"/><polygon class="cls-5" points="113.93 31.73 123.78 27.8 123.38 45.64 124.4 46.79 124.99 65.02 117.32 51.2 118.02 42.68 122.72 44.66 113.93 31.73"/><polygon class="cls-5" points="126 17.35 141.2 54.14 147.03 60.72 149.17 63.45 142.4 70.17 131.26 52.23 129 48.45 126 17.35"/><polygon class="cls-5" points="41.38 64.03 38.42 68.84 37.57 68.82 41.48 73.25 39.41 74.54 41.66 78.58 41.63 81.43 42.1 81.98 42.31 80.99 47.3 80.98 46.75 80.1 51.02 80.5 48.74 78.13 48.11 77.33 46.4 75.4 48.37 76.2 41.38 64.03"/><polygon class="cls-6" points="94.4 15.33 83.82 18.3 103.22 39.3 104.86 7.62 94.4 15.33"/><polygon class="cls-6" points="142.54 83.11 148.15 79.44 151.58 73.95 117.17 77.61 57.95 77 63.04 81.73 65.7 83.08 142.54 83.11"/><polyline class="cls-6" points="124.03 82.71 148.15 79.44 117.17 77.61 124.02 83.1 57.95 77"/><polyline class="cls-6" points="62.74 81.45 74.89 78.57 65.7 83.08"/><polyline class="cls-6" points="101.28 74.85 100.73 73.17 46.93 73.73 101.28 74.85"/><path class="cls-6" d="M124.75,12.56l.55,64.19,1.2-.13c.09.07,0,.11,0,0Z"/><path class="cls-6" d="M101.68,77.45c0-.42,4.24-76.62,4.24-76.62L104.4,77.48Z"/><line class="cls-6" x1="101.93" y1="2.17" x2="105.27" y2="2.21"/><path class="cls-6" d="M105.27,2.1c0-.14,0-1.75,0-1.75l-1.52,1.06,1.5.79L101.94.57l3.35-.32"/><polygon class="cls-6" points="101.93 2.17 103.76 1.41 101.94 0.76 101.93 2.17"/><path class="cls-6" d="M130.54,49.64c-.2-.13-1.54-1.18-1.54-1.18L127.73,39l5.4,6.08L147,60.72l-15.77-8.49L127.73,39,126,17.81l10.27,30.77"/><polyline class="cls-6" points="147.92 56.87 141.2 54.14 126 17.35 147.92 56.87"/><polyline class="cls-6" points="147.03 60.72 138.73 64.27 149.18 63.45 147.03 60.72"/><polygon class="cls-6" points="142.4 70.17 149.17 63.45 156.98 71.55 142.4 70.17"/><polygon class="cls-6" points="127.23 73.23 144.28 73.2 126.04 43.83 127.23 73.23"/><polyline class="cls-6" points="123.78 27.8 113.93 31.73 124.06 15.34 123.79 27.57 123.38 45.64 111.9 31.71 113.93 31.73 123.38 45.64"/><line class="cls-6" x1="124.4" y1="46.79" x2="125" y2="65.02"/><polyline class="cls-6" points="111.04 31.7 124.4 46.79 117.32 51.2 124.99 65.02 124.89 74.73"/><polygon class="cls-6" points="124.89 74.73 104.8 72.21 111.04 31.7 124.89 74.73"/><line class="cls-6" x1="103.2" y1="40.49" x2="101.49" y2="71.75"/><line class="cls-6" x1="49.04" y1="71.63" x2="65.06" y2="73.06"/><polyline class="cls-6" points="88.4 37.39 101.49 71.75 65.06 73.06 88.4 37.39 87.85 37.87 71.8 51.84 49.04 71.63 70.78 33.7 70.57 52.9"/><polygon class="cls-6" points="79.65 16.2 70.78 33.7 103.2 40.49 79.65 16.2"/><line class="cls-6" x1="103.22" y1="39.3" x2="94.4" y2="15.33"/><polyline class="cls-6" points="41.37 83.77 48.44 82.81 39.36 82.27 41.37 83.88 22.02 82.09"/><polyline class="cls-6" points="23.42 83.4 26.98 82.55 24.29 83.88"/><polyline class="cls-6" points="34.71 81.47 34.55 80.97 18.79 81.14 34.71 81.47"/><path class="cls-6" d="M41.59,63.22,41.74,82l.36,0s0,0,0,0Z"/><path class="cls-6" d="M34.82,82.23c0-.13,1.25-22.45,1.25-22.45l-.44,22.46Z"/><line class="cls-6" x1="34.9" y1="60.18" x2="35.88" y2="60.19"/><path class="cls-6" d="M35.88,60.16s0-.51,0-.51l-.44.3.44.24-1-.48,1-.1"/><polygon class="cls-6" points="34.9 60.18 35.44 59.95 34.9 59.76 34.9 60.18"/><path class="cls-6" d="M43.28,74.08l-.45-.35L42.46,71,44,72.73l4.07,4.59-4.62-2.48-1-3.89L42,64.76l3,9"/><polyline class="cls-6" points="48.37 76.2 46.4 75.4 41.95 64.62 48.37 76.2"/><polyline class="cls-6" points="48.11 77.33 45.68 78.36 48.74 78.12 48.11 77.33"/><polygon class="cls-6" points="46.75 80.1 48.74 78.13 51.02 80.5 46.75 80.1"/><polygon class="cls-6" points="42.31 80.99 47.3 80.98 41.96 72.38 42.31 80.99"/><polyline class="cls-6" points="41.3 67.68 38.42 68.84 41.38 64.03 41.3 67.62 41.18 72.91 37.82 68.83 38.42 68.84 41.18 72.91"/><line class="cls-6" x1="41.48" y1="73.24" x2="41.66" y2="78.59"/><polyline class="cls-6" points="37.57 68.83 41.48 73.25 39.41 74.54 41.66 78.58 41.63 81.43"/><polygon class="cls-6" points="41.63 81.43 35.74 80.69 37.57 68.82 41.63 81.43"/><line class="cls-6" x1="35.28" y1="71.4" x2="34.77" y2="80.56"/><line class="cls-6" x1="19.41" y1="80.52" x2="24.1" y2="80.94"/><polyline class="cls-6" points="30.94 70.49 34.77 80.56 24.1 80.94 30.94 70.49 30.78 70.63 26.07 74.72 19.41 80.52 25.77 69.41 25.72 75.03"/><polygon class="cls-6" points="28.38 64.29 25.78 69.41 35.28 71.4 28.38 64.29"/><line class="cls-6" x1="35.28" y1="71.05" x2="32.7" y2="64.03"/><polygon class="cls-6" points="32.69 64.03 29.6 64.9 35.28 71.05 35.76 61.77 32.69 64.03"/><polygon class="cls-6" points="46.8 83.88 48.44 82.81 49.45 81.2 39.36 82.27 22.02 82.09 23.51 83.48 24.29 83.87 46.8 83.88"/></g></g></svg>