<svg xmlns="http://www.w3.org/2000/svg" viewBox="0 0 153.5 136.3"><defs><style>.cls-1,.cls-5{fill:#fff;}.cls-2{fill:#fdefe1;}.cls-3{fill:none;}.cls-3,.cls-5{stroke:#21231f;}.cls-3,.cls-4,.cls-5{stroke-linecap:round;stroke-linejoin:round;stroke-width:0.5px;}.cls-4{fill:#d6af87;stroke:#fff;}</style></defs><g id="Layer_2" data-name="Layer 2"><g id="content"><polygon class="cls-1" points="81.54 44.73 82.72 43.72 82.86 44.71 81.54 44.73"/><polygon class="cls-1" points="82.72 43.72 83.68 44.17 82.86 44.71 82.72 43.72"/><polygon class="cls-1" points="81.54 44.73 82.86 45.42 82.86 44.71 81.54 44.73"/><polygon class="cls-1" points="82.86 45.42 83.68 44.17 82.86 44.71 82.86 45.42"/><polygon class="cls-1" points="82.86 45.42 84.91 42.35 86.49 47.26 82.86 45.42"/><polygon class="cls-1" points="84.91 42.35 80.1 42.5 83.68 44.17 84.91 42.35"/><polygon class="cls-1" points="82.72 43.72 76.12 49.27 80.1 42.5 82.72 43.72"/><polygon class="cls-1" points="76.12 49.33 73.65 45.89 80.1 42.5 76.12 49.33"/><polygon class="cls-1" points="73.65 45.89 77.45 41.69 80.1 42.5 73.65 45.89"/><polygon class="cls-1" points="77.45 41.69 81.69 40.47 80.1 42.5 77.45 41.69"/><polygon class="cls-1" points="73.65 45.89 68.78 49.27 72.24 49.51 73.65 45.89"/><polygon class="cls-1" points="72.24 49.51 69.81 53.1 72.24 53.1 72.24 49.51"/><polygon class="cls-1" points="72.24 49.51 74.95 47.7 73.65 45.89 72.24 49.51"/><polygon class="cls-1" points="68.78 49.27 69.81 53.1 72.24 49.51 68.78 49.27"/><polygon class="cls-1" points="68.78 49.27 68.2 49.98 69.3 51.19 68.78 49.27"/><polygon class="cls-1" points="68.78 50.62 68.2 52.67 69.3 51.19 68.78 50.62"/><polygon class="cls-1" points="76.12 49.33 75.78 54.94 72.24 55.76 76.12 49.33"/><polygon class="cls-1" points="74.95 47.7 72.24 55.76 72.24 49.51 74.95 47.7"/><polygon class="cls-1" points="68.2 52.67 69.81 54.9 69.81 53.1 68.2 52.67"/><polygon class="cls-1" points="69.81 53.1 68.2 52.67 69.3 51.19 69.81 53.1"/><polygon class="cls-1" points="69.81 54.9 72.24 53.1 69.81 53.1 69.81 54.9"/><polygon class="cls-1" points="69.81 54.9 72.24 53.1 72.24 55.76 69.81 54.9"/><polygon class="cls-1" points="76.12 49.33 81.07 53.18 75.78 54.94 76.12 49.33"/><polygon class="cls-1" points="75.78 54.94 81.99 62.39 88.41 58.89 75.78 54.94"/><polygon class="cls-1" points="76.12 49.33 80.15 45.88 91.37 54.76 76.12 49.33"/><polygon class="cls-1" points="82.72 51.68 81.07 53.18 76.12 49.33 82.72 51.68"/><polygon class="cls-1" points="84.58 46.32 91.37 54.76 81.99 47.34 84.58 46.32"/><polygon class="cls-1" points="84.58 46.32 89.81 48.89 91.37 54.76 84.58 46.32"/><polygon class="cls-1" points="84.91 42.35 88.13 39.82 85.94 45.56 84.91 42.35"/><polygon class="cls-1" points="88.13 39.82 90.1 42.5 85.94 45.56 88.13 39.82"/><polygon class="cls-1" points="88.13 39.82 90.1 39.47 90.1 42.5 88.13 39.82"/><polygon class="cls-1" points="89.34 43.06 97.42 45.06 85.94 45.56 89.34 43.06"/><polygon class="cls-1" points="81.99 62.39 82.86 68.02 94.38 76.25 81.99 62.39"/><polygon class="cls-1" points="94.38 76.25 95.86 72.79 88.18 69.32 94.38 76.25"/><polygon class="cls-1" points="88.18 69.32 98.66 67.53 95.86 72.79 88.18 69.32"/><polygon class="cls-1" points="88.41 58.89 88.18 69.32 81.99 62.39 88.41 58.89"/><polygon class="cls-1" points="88.41 58.89 98.66 67.53 88.18 69.32 88.41 58.89"/><polygon class="cls-1" points="91.37 54.76 97.42 45.06 89.81 48.89 91.37 54.76"/><polygon class="cls-1" points="89.81 48.89 85.94 45.56 86.49 47.26 89.81 48.89"/><polygon class="cls-1" points="85.94 45.56 97.42 45.06 89.81 48.89 85.94 45.56"/><polygon class="cls-1" points="91.37 54.76 105.24 67.53 98.66 67.53 91.37 54.76"/><polygon class="cls-1" points="91.37 54.76 88.41 58.89 98.66 67.53 91.37 54.76"/><polygon class="cls-1" points="92.81 43.92 102.49 46.32 97.09 42.28 92.81 43.92"/><polygon class="cls-1" points="97.09 42.28 105.9 45.56 102.49 46.32 97.09 42.28"/><polygon class="cls-1" points="97.42 45.06 108.06 47.7 91.37 54.76 97.42 45.06"/><polygon class="cls-1" points="108.06 47.7 105.24 67.53 91.37 54.76 108.06 47.7"/><polygon class="cls-1" points="108.06 47.7 111.25 62.39 105.24 67.53 108.06 47.7"/><polygon class="cls-1" points="111.25 62.39 112.81 69.32 105.24 67.53 111.25 62.39"/><polygon class="cls-1" points="98.66 67.53 95.1 74.56 105.24 67.53 98.66 67.53"/><polygon class="cls-1" points="112.81 69.32 102.11 77.41 105.24 67.53 112.81 69.32"/><polygon class="cls-1" points="105.24 67.53 95.1 74.56 102.11 77.41 105.24 67.53"/><polygon class="cls-1" points="102.11 77.41 105.9 83.66 103.27 76.53 102.11 77.41"/><polygon class="cls-1" points="95.1 74.56 98.31 79.63 102.11 77.41 95.1 74.56"/><polygon class="cls-1" points="98.31 79.63 105.24 88.68 102.11 77.41 98.31 79.63"/><polygon class="cls-1" points="102.11 77.41 105.9 83.66 105.24 88.68 102.11 77.41"/><polygon class="cls-1" points="105.9 83.66 110.26 85.22 105.24 88.68 105.9 83.66"/><polygon class="cls-1" points="105.24 88.68 109.03 90.66 111.25 87.53 105.24 88.68"/><polygon class="cls-1" points="110.26 85.22 111.25 87.53 105.24 88.68 110.26 85.22"/><polygon class="cls-1" points="109.03 90.66 110.75 91.73 111.25 87.53 109.03 90.66"/><polygon class="cls-1" points="111.25 87.53 112.07 89.63 110.75 91.73 111.25 87.53"/><polygon class="cls-1" points="100.67 82.71 106.31 101.03 105.24 88.68 100.67 82.71"/><polygon class="cls-1" points="105.24 88.68 107.46 89.84 108.24 100.2 105.24 88.68"/><polygon class="cls-1" points="108.24 100.2 105.24 88.68 106.31 101.03 108.24 100.2"/><polygon class="cls-1" points="108.24 100.2 106.31 101.03 105.24 88.68 108.24 100.2"/><polygon class="cls-1" points="112.34 67.22 122.77 64.74 121.95 47.34 112.34 67.22"/><polygon class="cls-1" points="105.9 45.56 108.06 47.7 102.49 46.32 105.9 45.56"/><polygon class="cls-1" points="105.9 45.56 121.95 47.34 108.06 47.7 105.9 45.56"/><polygon class="cls-1" points="108.06 47.7 112.34 67.22 121.95 47.34 108.06 47.7"/><polygon class="cls-1" points="122.77 64.74 121.95 68.19 112.34 67.22 122.77 64.74"/><polygon class="cls-1" points="121.95 68.19 112.81 69.32 112.34 67.22 121.95 68.19"/><polygon class="cls-1" points="121.95 47.34 133.55 53.79 122.77 64.74 121.95 47.34"/><polygon class="cls-1" points="133.55 53.79 134.54 64.74 122.77 64.74 133.55 53.79"/><polygon class="cls-1" points="121.95 68.19 128.37 83.66 122.77 64.74 121.95 68.19"/><polygon class="cls-1" points="128.37 83.66 134.54 64.74 122.77 64.74 128.37 83.66"/><polygon class="cls-1" points="131.74 73.32 133.55 86.17 128.37 83.66 131.74 73.32"/><polygon class="cls-1" points="133.55 86.17 127.75 107.88 129.19 90.66 133.55 86.17"/><polygon class="cls-1" points="128.37 83.66 129.19 90.66 133.55 86.17 128.37 83.66"/><polygon class="cls-1" points="129.19 90.66 125.16 106.63 127.75 107.88 129.19 90.66"/><polygon class="cls-1" points="110.53 71.04 117.14 76.53 112.81 69.32 110.53 71.04"/><polygon class="cls-1" points="117.14 76.53 121.95 68.19 112.81 69.32 117.14 76.53"/><polygon class="cls-1" points="117.14 76.53 127.38 81.28 121.95 68.19 117.14 76.53"/><polygon class="cls-1" points="132.27 77.09 135.36 78.89 133.55 86.17 132.27 77.09"/><polygon class="cls-1" points="135.36 78.89 135.36 101.44 133.55 86.17 135.36 78.89"/><polygon class="cls-1" points="132.14 91.46 135.36 101.44 133.55 86.17 132.14 91.46"/><polygon class="cls-1" points="132.14 91.46 132.27 99.4 134.2 97.85 132.14 91.46"/><polygon class="cls-1" points="135.36 101.44 138.41 102.67 135.36 97.03 135.36 101.44"/><polygon class="cls-1" points="138.41 102.67 135.36 107.03 135.36 101.44 138.41 102.67"/><polygon class="cls-1" points="134.2 97.85 133.17 103.64 132.27 99.4 134.2 97.85"/><polygon class="cls-1" points="135.36 101.44 133.17 103.64 134.2 97.85 135.36 101.44"/><polygon class="cls-1" points="133.17 103.64 135.36 107.03 135.36 101.44 133.17 103.64"/><polygon class="cls-1" points="135.36 107.03 136.88 108.43 139.23 106.13 135.36 107.03"/><polygon class="cls-1" points="139.23 106.13 138.41 102.67 135.36 107.03 139.23 106.13"/><polygon class="cls-1" points="81.69 40.47 86.68 36.5 82.57 42.44 81.69 40.47"/><polygon class="cls-1" points="81.69 40.47 80.1 42.5 82.57 42.44 81.69 40.47"/><polygon class="cls-1" points="84.58 38.17 86.23 32.72 86.68 36.5 84.58 38.17"/><polygon class="cls-1" points="86.23 32.72 87.55 33.29 86.68 36.5 86.23 32.72"/><polygon class="cls-1" points="86.23 32.72 81.07 24.41 85.2 27.29 86.23 32.72"/><polygon class="cls-1" points="85.2 27.29 87.55 33.29 86.23 32.72 85.2 27.29"/><polygon class="cls-1" points="81.07 24.41 76.52 22.43 81.07 21.69 81.07 24.41"/><polygon class="cls-1" points="81.07 21.69 85.2 27.29 81.07 24.41 81.07 21.69"/><polygon class="cls-1" points="82.72 23.92 84.58 20.37 85.2 27.29 82.72 23.92"/><polygon class="cls-1" points="82.57 42.44 87.55 39.01 86.68 36.5 82.57 42.44"/><polygon class="cls-1" points="87.55 39.01 89.27 37.41 86.99 37.41 87.55 39.01"/><polygon class="cls-1" points="89.27 37.41 90.1 38.73 87.55 39.01 89.27 37.41"/><polygon class="cls-1" points="89.27 37.41 99.72 34.61 94.38 38.73 89.27 37.41"/><polygon class="cls-1" points="89.27 37.41 90.1 38.73 94.38 38.73 89.27 37.41"/><polygon class="cls-1" points="94.38 38.73 102.07 36.22 99.72 34.61 94.38 38.73"/><polygon class="cls-1" points="99.72 34.61 105.45 30.29 102.07 36.22 99.72 34.61"/><polygon class="cls-1" points="102.07 36.22 106.89 31.57 105.45 30.29 102.07 36.22"/><polygon class="cls-1" points="105.45 30.29 108.9 20.82 109.11 26.42 105.45 30.29"/><polygon class="cls-1" points="105.45 30.29 106.89 31.57 109.11 26.42 105.45 30.29"/><polygon class="cls-1" points="108.9 20.82 111.08 14.28 110.8 21.69 108.9 20.82"/><polygon class="cls-1" points="110.8 21.69 109.11 26.42 108.9 20.82 110.8 21.69"/><polygon class="cls-1" points="111.08 14.28 112.11 10.41 112.44 14.53 111.08 14.28"/><polygon class="cls-1" points="112.44 14.53 110.99 16.79 111.08 14.28 112.44 14.53"/><polygon class="cls-1" points="108.9 20.82 107.63 12.47 111.08 14.28 108.9 20.82"/><polygon class="cls-1" points="107.63 12.47 106.68 5.6 109.99 10.13 107.63 12.47"/><polygon class="cls-1" points="109.99 10.13 111.08 14.28 107.63 12.47 109.99 10.13"/><polygon class="cls-1" points="109.19 9.04 109.36 4.94 110.55 6.99 109.19 9.04"/><polygon class="cls-1" points="110.55 6.99 109.99 10.13 109.19 9.04 110.55 6.99"/><polygon class="cls-1" points="109.28 6.79 104.62 0.25 109.36 4.94 109.28 6.79"/><polygon class="cls-1" points="106.68 5.6 99.73 1.36 102.89 6.59 106.68 5.6"/><polygon class="cls-1" points="102.89 6.59 107.63 12.47 106.68 5.6 102.89 6.59"/><polygon class="cls-1" points="102.89 6.59 99.48 3.97 99.73 1.36 102.89 6.59"/><polygon class="cls-1" points="101.85 5.79 96.11 4.74 99.48 3.97 101.85 5.79"/><polygon class="cls-1" points="99.58 2.93 95.2 0.25 99.73 1.36 99.58 2.93"/><polygon class="cls-1" points="104.01 3.97 103.2 1.94 105.5 4.88 104.01 3.97"/><polygon class="cls-1" points="81.69 40.47 76.12 40.47 77.45 41.69 81.69 40.47"/><polygon class="cls-1" points="77.45 41.69 72.43 37.08 72.81 41.69 77.45 41.69"/><polygon class="cls-1" points="72.81 41.69 76.37 42.88 77.23 41.48 72.81 41.69"/><polygon class="cls-1" points="72.43 37.08 71.02 42.18 72.81 41.69 72.43 37.08"/><polygon class="cls-1" points="71.76 39.5 64.09 26.82 72.43 37.08 71.76 39.5"/><polygon class="cls-1" points="64.09 26.82 65.3 25.06 69.85 33.91 64.09 26.82"/><polygon class="cls-1" points="65.3 25.06 66.97 20.37 66.44 27.29 65.3 25.06"/><polygon class="cls-1" points="66.97 20.37 70.45 17.27 66.71 23.83 66.97 20.37"/><polygon class="cls-1" points="64.09 26.82 57.4 17.55 65.3 25.06 64.09 26.82"/><polygon class="cls-1" points="62.27 22.18 62.66 16.12 63.41 23.27 62.27 22.18"/><polygon class="cls-1" points="62.66 16.12 65.3 10.91 63.13 20.55 62.66 16.12"/><polygon class="cls-1" points="57.4 17.55 58.88 16.12 62.27 22.18 57.4 17.55"/><polygon class="cls-1" points="57.4 17.55 59.83 15.2 57.4 15.73 57.4 17.55"/><polygon class="cls-1" points="58.01 15.6 58.01 13.05 58.62 15.46 58.01 15.6"/><polygon class="cls-1" points="58.01 13.05 60.69 10.91 58.33 14.32 58.01 13.05"/><polygon class="cls-1" points="60.09 18.28 60.69 13.49 61.11 20.11 60.09 18.28"/><polygon class="cls-1" points="60.69 13.49 62.27 11.68 60.86 16.12 60.69 13.49"/><polygon class="cls-1" points="61.35 29.89 63.65 26.2 61.68 32.72 61.35 29.89"/><polygon class="cls-1" points="61.68 32.72 60.69 29.73 61.35 29.89 61.68 32.72"/><polyline class="cls-1" points="60.69 29.73 61.11 27.29 61.35 29.89"/><polygon class="cls-1" points="62.5 30 64.09 38.45 61.68 32.72 62.5 30"/><polygon class="cls-1" points="61.68 32.72 62.5 37.08 64.09 38.45 61.68 32.72"/><polygon class="cls-1" points="63.41 35.58 71.16 41.69 64.09 38.45 63.41 35.58"/><polygon class="cls-1" points="67.77 39.01 71.5 40.47 71.16 41.69 67.77 39.01"/><polygon class="cls-1" points="83.65 42.35 88.13 39.82 84.91 42.35 83.65 42.35"/><polygon class="cls-1" points="81.07 53.18 91.37 54.76 88.41 58.89 81.07 53.18"/><polygon class="cls-1" points="84.58 46.32 80.15 45.88 81.99 47.34 84.58 46.32"/><polygon class="cls-1" points="72.24 55.76 74.95 47.7 76.12 49.33 72.24 55.76"/><polygon class="cls-1" points="81.07 53.18 82.72 51.68 91.37 54.76 81.07 53.18"/><polygon class="cls-1" points="88.41 58.89 81.07 53.18 75.78 54.94 88.41 58.89"/><polygon class="cls-1" points="80.15 45.88 81.54 44.73 84.58 46.32 80.15 45.88"/><polygon class="cls-2" points="2.18 130.79 27.05 116.43 36 98.92 62.29 107.78 70.72 105.56 142.05 119.42 88.88 125.51 35.86 136.3 2.18 130.79"/><polygon class="cls-3" points="81.54 44.73 82.72 43.72 82.86 44.71 81.54 44.73"/><polygon class="cls-3" points="82.72 43.72 83.68 44.17 82.86 44.71 82.72 43.72"/><polygon class="cls-3" points="81.54 44.73 82.86 45.42 82.86 44.71 81.54 44.73"/><polygon class="cls-3" points="82.86 45.42 83.68 44.17 82.86 44.71 82.86 45.42"/><polygon class="cls-3" points="82.86 45.42 84.91 42.35 86.49 47.26 82.86 45.42"/><polygon class="cls-3" points="84.91 42.35 80.1 42.5 83.68 44.17 84.91 42.35"/><polygon class="cls-3" points="82.72 43.72 76.12 49.27 80.1 42.5 82.72 43.72"/><polygon class="cls-3" points="76.12 49.33 73.65 45.89 80.1 42.5 76.12 49.33"/><polygon class="cls-3" points="73.65 45.89 77.45 41.69 80.1 42.5 73.65 45.89"/><polygon class="cls-3" points="77.45 41.69 81.69 40.47 80.1 42.5 77.45 41.69"/><polygon class="cls-3" points="73.65 45.89 68.78 49.27 72.24 49.51 73.65 45.89"/><polygon class="cls-3" points="72.24 49.51 69.81 53.1 72.24 53.1 72.24 49.51"/><polygon class="cls-3" points="72.24 49.51 74.95 47.7 73.65 45.89 72.24 49.51"/><polygon class="cls-3" points="68.78 49.27 69.81 53.1 72.24 49.51 68.78 49.27"/><polygon class="cls-3" points="68.78 49.27 68.2 49.98 69.3 51.19 68.78 49.27"/><polygon class="cls-3" points="68.78 50.62 68.2 52.67 69.3 51.19 68.78 50.62"/><polygon class="cls-3" points="76.12 49.33 75.78 54.94 72.24 55.76 76.12 49.33"/><polygon class="cls-3" points="74.95 47.7 72.24 55.76 72.24 49.51 74.95 47.7"/><polygon class="cls-3" points="68.2 52.67 69.81 54.9 69.81 53.1 68.2 52.67"/><polygon class="cls-3" points="69.81 53.1 68.2 52.67 69.3 51.19 69.81 53.1"/><polygon class="cls-3" points="69.81 54.9 72.24 53.1 69.81 53.1 69.81 54.9"/><polygon class="cls-3" points="69.81 54.9 72.24 53.1 72.24 55.76 69.81 54.9"/><polygon class="cls-3" points="76.12 49.33 81.07 53.18 75.78 54.94 76.12 49.33"/><polygon class="cls-3" points="75.78 54.94 81.99 62.39 88.41 58.89 75.78 54.94"/><polygon class="cls-3" points="76.12 49.33 80.15 45.88 91.37 54.76 76.12 49.33"/><polygon class="cls-3" points="82.72 51.68 81.07 53.18 76.12 49.33 82.72 51.68"/><polygon class="cls-3" points="84.58 46.32 91.37 54.76 81.99 47.34 84.58 46.32"/><polygon class="cls-3" points="84.58 46.32 89.81 48.89 91.37 54.76 84.58 46.32"/><polygon class="cls-3" points="84.91 42.35 88.13 39.82 85.94 45.56 84.91 42.35"/><polygon class="cls-3" points="88.13 39.82 90.1 42.5 85.94 45.56 88.13 39.82"/><polygon class="cls-3" points="88.13 39.82 90.1 39.47 90.1 42.5 88.13 39.82"/><polygon class="cls-3" points="89.34 43.06 97.42 45.06 85.94 45.56 89.34 43.06"/><polygon class="cls-3" points="81.99 62.39 82.86 68.02 94.38 76.25 81.99 62.39"/><polygon class="cls-3" points="94.38 76.25 95.86 72.79 88.18 69.32 94.38 76.25"/><polygon class="cls-3" points="88.18 69.32 98.66 67.53 95.86 72.79 88.18 69.32"/><polygon class="cls-3" points="88.41 58.89 88.18 69.32 81.99 62.39 88.41 58.89"/><polygon class="cls-3" points="88.41 58.89 98.66 67.53 88.18 69.32 88.41 58.89"/><polygon class="cls-3" points="91.37 54.76 97.42 45.06 89.81 48.89 91.37 54.76"/><polygon class="cls-3" points="89.81 48.89 85.94 45.56 86.49 47.26 89.81 48.89"/><polygon class="cls-3" points="85.94 45.56 97.42 45.06 89.81 48.89 85.94 45.56"/><polygon class="cls-3" points="91.37 54.76 105.24 67.53 98.66 67.53 91.37 54.76"/><polygon class="cls-3" points="91.37 54.76 88.41 58.89 98.66 67.53 91.37 54.76"/><polygon class="cls-3" points="92.81 43.92 102.49 46.32 97.09 42.28 92.81 43.92"/><polygon class="cls-3" points="97.09 42.28 105.9 45.56 102.49 46.32 97.09 42.28"/><polygon class="cls-3" points="97.42 45.06 108.06 47.7 91.37 54.76 97.42 45.06"/><polygon class="cls-3" points="108.06 47.7 105.24 67.53 91.37 54.76 108.06 47.7"/><polygon class="cls-3" points="108.06 47.7 111.25 62.39 105.24 67.53 108.06 47.7"/><polygon class="cls-3" points="111.25 62.39 112.81 69.32 105.24 67.53 111.25 62.39"/><polygon class="cls-3" points="98.66 67.53 95.1 74.56 105.24 67.53 98.66 67.53"/><polygon class="cls-3" points="112.81 69.32 102.11 77.41 105.24 67.53 112.81 69.32"/><polygon class="cls-3" points="105.24 67.53 95.1 74.56 102.11 77.41 105.24 67.53"/><polygon class="cls-3" points="102.11 77.41 105.9 83.66 103.27 76.53 102.11 77.41"/><polygon class="cls-3" points="95.1 74.56 98.31 79.63 102.11 77.41 95.1 74.56"/><polygon class="cls-3" points="98.31 79.63 105.24 88.68 102.11 77.41 98.31 79.63"/><polygon class="cls-3" points="102.11 77.41 105.9 83.66 105.24 88.68 102.11 77.41"/><polygon class="cls-3" points="105.9 83.66 110.26 85.22 105.24 88.68 105.9 83.66"/><polygon class="cls-3" points="105.24 88.68 109.03 90.66 111.25 87.53 105.24 88.68"/><polygon class="cls-3" points="110.26 85.22 111.25 87.53 105.24 88.68 110.26 85.22"/><polygon class="cls-3" points="109.03 90.66 110.75 91.73 111.25 87.53 109.03 90.66"/><polygon class="cls-3" points="111.25 87.53 112.07 89.63 110.75 91.73 111.25 87.53"/><polygon class="cls-3" points="100.67 82.71 106.31 101.03 105.24 88.68 100.67 82.71"/><polygon class="cls-3" points="105.24 88.68 107.46 89.84 108.24 100.2 105.24 88.68"/><polygon class="cls-3" points="108.24 100.2 105.24 88.68 106.31 101.03 108.24 100.2"/><polygon class="cls-3" points="108.24 100.2 106.31 101.03 105.24 88.68 108.24 100.2"/><polygon class="cls-3" points="112.34 67.22 122.77 64.74 121.95 47.34 112.34 67.22"/><polygon class="cls-3" points="105.9 45.56 108.06 47.7 102.49 46.32 105.9 45.56"/><polygon class="cls-3" points="105.9 45.56 121.95 47.34 108.06 47.7 105.9 45.56"/><polygon class="cls-3" points="108.06 47.7 112.34 67.22 121.95 47.34 108.06 47.7"/><polygon class="cls-3" points="122.77 64.74 121.95 68.19 112.34 67.22 122.77 64.74"/><polygon class="cls-3" points="121.95 68.19 112.81 69.32 112.34 67.22 121.95 68.19"/><polygon class="cls-3" points="121.95 47.34 133.55 53.79 122.77 64.74 121.95 47.34"/><polygon class="cls-3" points="133.55 53.79 134.54 64.74 122.77 64.74 133.55 53.79"/><polygon class="cls-3" points="121.95 68.19 128.37 83.66 122.77 64.74 121.95 68.19"/><polygon class="cls-3" points="128.37 83.66 134.54 64.74 122.77 64.74 128.37 83.66"/><polygon class="cls-3" points="131.74 73.32 133.55 86.17 128.37 83.66 131.74 73.32"/><polygon class="cls-3" points="133.55 86.17 127.75 107.88 129.19 90.66 133.55 86.17"/><polygon class="cls-3" points="128.37 83.66 129.19 90.66 133.55 86.17 128.37 83.66"/><polygon class="cls-3" points="129.19 90.66 125.16 106.63 127.75 107.88 129.19 90.66"/><polygon class="cls-3" points="110.53 71.04 117.14 76.53 112.81 69.32 110.53 71.04"/><polygon class="cls-3" points="117.14 76.53 121.95 68.19 112.81 69.32 117.14 76.53"/><polygon class="cls-3" points="117.14 76.53 127.38 81.28 121.95 68.19 117.14 76.53"/><polygon class="cls-3" points="132.27 77.09 135.36 78.89 133.55 86.17 132.27 77.09"/><polygon class="cls-3" points="135.36 78.89 135.36 101.44 133.55 86.17 135.36 78.89"/><polygon class="cls-3" points="132.14 91.46 135.36 101.44 133.55 86.17 132.14 91.46"/><polygon class="cls-3" points="132.14 91.46 132.27 99.4 134.2 97.85 132.14 91.46"/><polygon class="cls-3" points="135.36 101.44 138.41 102.67 135.36 97.03 135.36 101.44"/><polygon class="cls-3" points="138.41 102.67 135.36 107.03 135.36 101.44 138.41 102.67"/><polygon class="cls-3" points="134.2 97.85 133.17 103.64 132.27 99.4 134.2 97.85"/><polygon class="cls-3" points="135.36 101.44 133.17 103.64 134.2 97.85 135.36 101.44"/><polygon class="cls-3" points="133.17 103.64 135.36 107.03 135.36 101.44 133.17 103.64"/><polygon class="cls-3" points="135.36 107.03 136.88 108.43 139.23 106.13 135.36 107.03"/><polygon class="cls-3" points="139.23 106.13 138.41 102.67 135.36 107.03 139.23 106.13"/><polygon class="cls-3" points="81.69 40.47 86.68 36.5 82.57 42.44 81.69 40.47"/><polygon class="cls-3" points="81.69 40.47 80.1 42.5 82.57 42.44 81.69 40.47"/><polygon class="cls-3" points="84.58 38.17 86.23 32.72 86.68 36.5 84.58 38.17"/><polygon class="cls-3" points="86.23 32.72 87.55 33.29 86.68 36.5 86.23 32.72"/><polygon class="cls-3" points="86.23 32.72 81.07 24.41 85.2 27.29 86.23 32.72"/><polygon class="cls-3" points="85.2 27.29 87.55 33.29 86.23 32.72 85.2 27.29"/><polygon class="cls-3" points="81.07 24.41 76.52 22.43 81.07 21.69 81.07 24.41"/><polygon class="cls-3" points="81.07 21.69 85.2 27.29 81.07 24.41 81.07 21.69"/><polygon class="cls-3" points="82.72 23.92 84.58 20.37 85.2 27.29 82.72 23.92"/><polygon class="cls-3" points="82.57 42.44 87.55 39.01 86.68 36.5 82.57 42.44"/><polygon class="cls-3" points="87.55 39.01 89.27 37.41 86.99 37.41 87.55 39.01"/><polygon class="cls-3" points="89.27 37.41 90.1 38.73 87.55 39.01 89.27 37.41"/><polygon class="cls-3" points="89.27 37.41 99.72 34.61 94.38 38.73 89.27 37.41"/><polygon class="cls-3" points="89.27 37.41 90.1 38.73 94.38 38.73 89.27 37.41"/><polygon class="cls-3" points="94.38 38.73 102.07 36.22 99.72 34.61 94.38 38.73"/><polygon class="cls-3" points="99.72 34.61 105.45 30.29 102.07 36.22 99.72 34.61"/><polygon class="cls-3" points="102.07 36.22 106.89 31.57 105.45 30.29 102.07 36.22"/><polygon class="cls-3" points="105.45 30.29 108.9 20.82 109.11 26.42 105.45 30.29"/><polygon class="cls-3" points="105.45 30.29 106.89 31.57 109.11 26.42 105.45 30.29"/><polygon class="cls-3" points="108.9 20.82 111.08 14.28 110.8 21.69 108.9 20.82"/><polygon class="cls-3" points="110.8 21.69 109.11 26.42 108.9 20.82 110.8 21.69"/><polygon class="cls-3" points="111.08 14.28 112.11 10.41 112.44 14.53 111.08 14.28"/><polygon class="cls-3" points="112.44 14.53 110.99 16.79 111.08 14.28 112.44 14.53"/><polygon class="cls-3" points="108.9 20.82 107.63 12.47 111.08 14.28 108.9 20.82"/><polygon class="cls-3" points="107.63 12.47 106.68 5.6 109.99 10.13 107.63 12.47"/><polygon class="cls-3" points="109.99 10.13 111.08 14.28 107.63 12.47 109.99 10.13"/><polygon class="cls-3" points="109.19 9.04 109.36 4.94 110.55 6.99 109.19 9.04"/><polygon class="cls-3" points="110.55 6.99 109.99 10.13 109.19 9.04 110.55 6.99"/><polygon class="cls-3" points="109.28 6.79 104.62 0.25 109.36 4.94 109.28 6.79"/><polygon class="cls-3" points="106.68 5.6 99.73 1.36 102.89 6.59 106.68 5.6"/><polygon class="cls-3" points="102.89 6.59 107.63 12.47 106.68 5.6 102.89 6.59"/><polygon class="cls-3" points="102.89 6.59 99.48 3.97 99.73 1.36 102.89 6.59"/><polygon class="cls-3" points="101.85 5.79 96.11 4.74 99.48 3.97 101.85 5.79"/><polygon class="cls-3" points="99.58 2.93 95.2 0.25 99.73 1.36 99.58 2.93"/><polygon class="cls-3" points="104.01 3.97 103.2 1.94 105.5 4.88 104.01 3.97"/><polygon class="cls-3" points="81.69 40.47 76.12 40.47 77.45 41.69 81.69 40.47"/><polygon class="cls-3" points="77.45 41.69 72.43 37.08 72.81 41.69 77.45 41.69"/><polygon class="cls-3" points="72.81 41.69 76.37 42.88 77.23 41.48 72.81 41.69"/><polygon class="cls-3" points="72.43 37.08 71.02 42.18 72.81 41.69 72.43 37.08"/><polygon class="cls-3" points="71.76 39.5 64.09 26.82 72.43 37.08 71.76 39.5"/><polygon class="cls-3" points="64.09 26.82 65.3 25.06 69.85 33.91 64.09 26.82"/><polygon class="cls-3" points="65.3 25.06 66.97 20.37 66.44 27.29 65.3 25.06"/><polygon class="cls-3" points="66.97 20.37 70.45 17.27 66.71 23.83 66.97 20.37"/><polygon class="cls-3" points="64.09 26.82 57.4 17.55 65.3 25.06 64.09 26.82"/><polygon class="cls-3" points="62.27 22.18 62.66 16.12 63.41 23.27 62.27 22.18"/><polygon class="cls-3" points="62.66 16.12 65.3 10.91 63.13 20.55 62.66 16.12"/><polygon class="cls-3" points="57.4 17.55 58.88 16.12 62.27 22.18 57.4 17.55"/><polygon class="cls-3" points="57.4 17.55 59.83 15.2 57.4 15.73 57.4 17.55"/><polygon class="cls-3" points="58.01 15.6 58.01 13.05 58.62 15.46 58.01 15.6"/><polygon class="cls-3" points="58.01 13.05 60.69 10.91 58.33 14.32 58.01 13.05"/><polygon class="cls-3" points="60.09 18.28 60.69 13.49 61.11 20.11 60.09 18.28"/><polygon class="cls-3" points="60.69 13.49 62.27 11.68 60.86 16.12 60.69 13.49"/><polygon class="cls-3" points="61.35 29.89 63.65 26.2 61.68 32.72 61.35 29.89"/><polygon class="cls-3" points="61.68 32.72 60.69 29.73 61.35 29.89 61.68 32.72"/><polyline class="cls-3" points="60.69 29.73 61.11 27.29 61.35 29.89"/><polygon class="cls-3" points="62.5 30 64.09 38.45 61.68 32.72 62.5 30"/><polygon class="cls-3" points="61.68 32.72 62.5 37.08 64.09 38.45 61.68 32.72"/><polygon class="cls-3" points="63.41 35.58 71.16 41.69 64.09 38.45 63.41 35.58"/><polygon class="cls-3" points="67.77 39.01 71.5 40.47 71.16 41.69 67.77 39.01"/><polygon class="cls-3" points="83.65 42.35 88.13 39.82 84.91 42.35 83.65 42.35"/><polygon class="cls-3" points="81.07 53.18 91.37 54.76 88.41 58.89 81.07 53.18"/><polygon class="cls-3" points="84.58 46.32 80.15 45.88 81.99 47.34 84.58 46.32"/><polygon class="cls-3" points="72.24 55.76 74.95 47.7 76.12 49.33 72.24 55.76"/><polygon class="cls-3" points="81.07 53.18 82.72 51.68 91.37 54.76 81.07 53.18"/><polygon class="cls-3" points="88.41 58.89 81.07 53.18 75.78 54.94 88.41 58.89"/><polygon class="cls-3" points="80.15 45.88 81.54 44.73 84.58 46.32 80.15 45.88"/><polygon class="cls-4" points="65.86 94.49 80.08 96.67 71.95 100.8 65.86 94.49"/><polygon class="cls-4" points="80.08 96.67 93.94 96.67 113.47 102.33 80.08 96.67"/><polygon class="cls-4" points="80.08 96.67 82.34 104.87 113.47 102.33 80.08 96.67"/><polygon class="cls-4" points="65.86 94.49 45.2 89.99 17.98 98.92 65.86 94.49"/><polygon class="cls-4" points="65.86 94.49 17.98 98.92 71.95 100.8 65.86 94.49"/><polygon class="cls-4" points="71.95 100.8 82.34 104.87 80.08 96.67 71.95 100.8"/><polygon class="cls-4" points="113.47 102.33 119.49 114.14 80.01 116.65 113.47 102.33"/><polygon class="cls-4" points="119.49 114.14 120.92 104.06 112.94 102.16 119.49 114.14"/><polygon class="cls-4" points="119.49 114.14 115.46 125.51 80.01 116.65 119.49 114.14"/><polygon class="cls-4" points="120.92 104.06 129.69 113.61 119.49 114.14 120.92 104.06"/><polygon class="cls-4" points="120.92 104.06 129.92 104.37 129.69 113.61 120.92 104.06"/><polygon class="cls-4" points="120.92 104.06 124.69 102.99 129.92 104.37 120.92 104.06"/><polygon class="cls-4" points="129.92 104.37 143.21 103.16 143.21 107.75 129.92 104.37"/><polygon class="cls-4" points="129.69 113.61 144.89 117.17 129.92 104.37 129.69 113.61"/><polygon class="cls-4" points="129.92 104.37 143.21 107.75 144.89 117.17 129.92 104.37"/><polygon class="cls-4" points="143.21 107.75 153.25 109.5 144.89 117.17 143.21 107.75"/><polygon class="cls-4" points="143.21 103.16 153.25 109.5 143.21 107.75 143.21 103.16"/><polygon class="cls-4" points="80.01 116.65 82.34 104.87 113.47 102.33 80.01 116.65"/><polygon class="cls-4" points="82.34 104.87 26.84 125.51 80.01 116.65 82.34 104.87"/><polygon class="cls-4" points="26.84 125.51 71.95 100.8 82.34 104.87 26.84 125.51"/><polygon class="cls-4" points="26.84 125.51 17.98 98.92 71.95 100.8 26.84 125.51"/><polygon class="cls-4" points="17.98 98.92 0.25 116.65 26.84 125.51 17.98 98.92"/><polygon class="cls-4" points="115.46 125.51 142.05 125.51 119.49 114.14 115.46 125.51"/><polygon class="cls-4" points="142.05 125.51 129.69 113.61 119.49 114.14 142.05 125.51"/><polygon class="cls-5" points="73.55 117.68 73.25 105.56 77.41 104.96 73.55 117.68"/><polygon class="cls-5" points="77.41 104.96 76.18 125.39 73.55 117.68 77.41 104.96"/><polygon class="cls-5" points="73.55 117.68 73.25 125.58 76.18 125.39 73.55 117.68"/><polygon class="cls-5" points="84.18 97.51 90.98 101.11 88.86 91.56 84.18 97.51"/><polygon class="cls-5" points="84.18 97.51 91.89 109.11 90.98 101.11 84.18 97.51"/><polygon class="cls-5" points="88.58 104.12 89.32 109.11 91.89 109.11 88.58 104.12"/><polygon class="cls-5" points="89.32 109.11 92.58 118.42 91.89 109.11 89.32 109.11"/><polygon class="cls-5" points="90.44 112.3 90.44 118.14 92.58 118.42 90.44 112.3"/><polygon class="cls-5" points="65.55 104.96 66.29 117.68 70.45 105.75 65.55 104.96"/><polygon class="cls-5" points="65.79 109.11 63.15 115.36 66.29 117.68 65.79 109.11"/><polygon class="cls-5" points="63.15 115.36 63.15 126.25 66.29 117.68 63.15 115.36"/><polygon class="cls-5" points="63.15 126.25 60.29 126.25 63.06 118.65 63.15 126.25"/><polygon class="cls-5" points="70.45 105.75 73.25 105.56 70.92 100.19 70.45 105.75"/><polygon class="cls-5" points="70.45 105.75 62.31 104.44 70.92 100.19 70.45 105.75"/><polygon class="cls-5" points="73.25 105.56 77.41 104.96 78.93 101.11 73.25 105.56"/><polygon class="cls-5" points="78.93 101.11 84.18 97.51 79.27 89.74 78.93 101.11"/><polygon class="cls-5" points="79.27 89.74 88.86 91.56 84.18 97.51 79.27 89.74"/><polygon class="cls-5" points="79.27 89.74 66.29 86.54 71.85 81.52 79.27 89.74"/><polygon class="cls-5" points="71.85 81.52 80.14 78.41 79.27 89.74 71.85 81.52"/><polygon class="cls-5" points="80.14 78.41 88.86 91.56 79.27 89.74 80.14 78.41"/><polygon class="cls-5" points="80.14 78.41 87.58 81.91 88.86 91.56 80.14 78.41"/><polygon class="cls-5" points="70.92 100.19 78.93 101.11 73.25 105.56 70.92 100.19"/><polygon class="cls-5" points="70.92 100.19 66.29 86.54 78.93 101.11 70.92 100.19"/><polygon class="cls-5" points="66.29 86.54 79.27 89.74 78.93 101.11 66.29 86.54"/><polygon class="cls-5" points="62.31 104.44 53.21 98.71 53.96 90.25 62.31 104.44"/><polygon class="cls-5" points="66.29 86.54 57.54 88.37 70.92 100.19 66.29 86.54"/><polygon class="cls-5" points="57.54 88.37 58.39 97.78 70.92 100.19 57.54 88.37"/><polygon class="cls-5" points="58.39 97.78 62.31 104.44 70.92 100.19 58.39 97.78"/><polygon class="cls-5" points="58.39 97.78 53.96 90.25 57.63 89.33 58.39 97.78"/><polygon class="cls-5" points="57.63 89.33 57.45 87.28 53.96 90.25 57.63 89.33"/><polygon class="cls-5" points="53.96 90.25 56.87 84.02 57.45 87.28 53.96 90.25"/><polygon class="cls-5" points="56.87 84.02 53.78 85.15 53.96 90.25 56.87 84.02"/><polygon class="cls-5" points="53.96 90.25 48.78 85.05 53.78 85.15 53.96 90.25"/><polygon class="cls-5" points="53.21 98.71 43.64 99.02 53.96 90.25 53.21 98.71"/><polygon class="cls-5" points="49.75 93.82 47.32 92.98 48.78 91.85 49.75 93.82"/><polygon class="cls-5" points="48.78 91.85 50.75 91.25 49.75 93.82 48.78 91.85"/><polygon class="cls-5" points="47.32 92.98 47.48 90.68 48.78 91.85 47.32 92.98"/><polygon class="cls-5" points="47.48 90.68 50.75 91.25 48.78 91.85 47.48 90.68"/><polygon class="cls-5" points="49.75 93.82 51.92 88.21 53.96 90.25 49.75 93.82"/><polygon class="cls-5" points="50.75 91.25 45.86 90.4 51.92 88.21 50.75 91.25"/><polygon class="cls-5" points="45.86 90.4 48.78 85.05 51.92 88.21 45.86 90.4"/><polygon class="cls-5" points="45.86 90.4 46.12 86.77 48.78 85.05 45.86 90.4"/><polygon class="cls-5" points="48.78 85.05 48.8 81.58 52.68 85.13 48.78 85.05"/><polygon class="cls-5" points="48.8 81.58 51.37 81.78 52.68 85.13 48.8 81.58"/><polygon class="cls-5" points="47.48 90.68 47.32 92.98 41.44 95.89 47.48 90.68"/><polygon class="cls-5" points="47.32 92.98 43.64 99.02 49.75 93.82 47.32 92.98"/><polygon class="cls-5" points="45.86 90.4 41.44 95.89 47.48 90.68 45.86 90.4"/><polygon class="cls-5" points="43.64 99.02 41.44 95.89 47.32 92.98 43.64 99.02"/><polygon class="cls-5" points="41.44 95.89 42.15 101.11 43.64 99.02 41.44 95.89"/><polygon class="cls-5" points="42.15 101.11 47.15 98.91 43.64 99.02 42.15 101.11"/><polygon class="cls-5" points="42.15 101.11 39.07 98.14 41.44 95.89 42.15 101.11"/></g></g></svg>