<svg xmlns="http://www.w3.org/2000/svg" viewBox="0 0 158.75 74.43"><defs><style>.cls-1{fill:#dceaf2;}.cls-2{fill:#8bcff2;stroke:#fff;}.cls-2,.cls-3{stroke-linecap:round;stroke-linejoin:round;stroke-width:0.5px;}.cls-3{fill:#fff;stroke:#21231f;}</style></defs><g id="Layer_2" data-name="Layer 2"><g id="content"><polygon class="cls-1" points="158.41 49.87 85.59 74.43 29.31 63.19 5.41 68.84 16.65 51.57 158.41 49.87"/><polygon class="cls-2" points="28.72 41.03 5.5 44.6 28.72 52.36 28.72 41.03"/><polygon class="cls-2" points="44.1 38.52 28.72 52.36 28.72 41.03 44.1 38.52"/><polygon class="cls-2" points="28.72 41.03 5.42 38.52 5.5 44.6 28.72 41.03"/><polygon class="cls-2" points="44.1 38.52 62.1 41.03 51.63 59.2 44.1 38.52"/><polygon class="cls-2" points="81.91 38.93 87.09 41.56 62.1 41.03 81.91 38.93"/><polygon class="cls-2" points="87.09 41.56 105.48 52.36 75.11 54.68 87.09 41.56"/><polygon class="cls-2" points="87.09 41.56 121.51 47.86 105.48 52.36 87.09 41.56"/><polygon class="cls-2" points="87.09 41.56 123.45 39.68 121.51 47.86 87.09 41.56"/><polygon class="cls-2" points="123.45 39.68 158.5 48.81 134.34 54.68 123.45 39.68"/><polygon class="cls-2" points="123.45 39.68 149.85 44.92 158.5 48.81 123.45 39.68"/><polygon class="cls-2" points="123.45 39.68 149.85 39.57 149.85 44.92 123.45 39.68"/><polygon class="cls-2" points="123.45 39.68 119.08 58.11 134.34 54.68 123.45 39.68"/><polygon class="cls-2" points="119.08 58.11 105.48 52.36 121.51 47.86 119.08 58.11"/><polygon class="cls-2" points="119.08 58.11 75.11 54.68 105.48 52.36 119.08 58.11"/><polygon class="cls-2" points="75.11 54.68 51.63 59.2 62.1 41.03 75.11 54.68"/><polygon class="cls-2" points="62.1 41.03 87.09 41.56 75.11 54.68 62.1 41.03"/><polygon class="cls-2" points="51.63 59.2 28.72 52.36 44.1 38.52 51.63 59.2"/><polygon class="cls-2" points="5.5 44.6 0.25 56.17 28.72 52.36 5.5 44.6"/><polygon class="cls-3" points="120.55 23.64 119.87 11.31 136.91 28.24 120.55 23.64"/><polygon class="cls-3" points="119.87 11.31 123.55 4.3 132.79 14.88 119.87 11.31"/><polygon class="cls-3" points="119.87 11.31 132.79 14.88 136.91 28.24 119.87 11.31"/><polygon class="cls-3" points="143.64 3.52 158.41 4.8 145.71 4.8 143.64 3.52"/><polygon class="cls-3" points="136.91 28.24 138.25 33.7 131.79 41.71 136.91 28.24"/><polygon class="cls-3" points="132.87 34.05 129.49 38.93 130.23 29.08 132.87 34.05"/><polygon class="cls-3" points="130.23 29.08 136.91 28.24 132.87 34.05 130.23 29.08"/><polygon class="cls-3" points="96.15 16.43 78.45 20.28 108.52 21.88 96.15 16.43"/><polygon class="cls-3" points="108.52 21.88 85.39 45.96 120.55 27.33 108.52 21.88"/><polygon class="cls-3" points="118.56 42.14 104.82 35.66 120.55 27.33 118.56 42.14"/><polygon class="cls-3" points="104.82 35.66 85.39 45.96 101.92 47.1 104.82 35.66"/><polygon class="cls-3" points="101.92 47.1 118.56 42.14 104.82 35.66 101.92 47.1"/><polygon class="cls-3" points="78.45 20.28 63.27 29.18 85.39 45.96 78.45 20.28"/><polygon class="cls-3" points="78.45 20.28 108.52 21.88 85.39 45.96 78.45 20.28"/><polygon class="cls-3" points="63.27 29.18 54.43 31.43 60.74 32.17 63.27 29.18"/><polygon class="cls-3" points="60.74 32.17 63.27 29.18 66.86 31.91 60.74 32.17"/><polygon class="cls-3" points="66.86 31.91 60.74 32.17 73.21 41.38 66.86 31.91"/><polygon class="cls-3" points="73.21 41.38 85.39 45.96 66.86 31.91 73.21 41.38"/><polygon class="cls-3" points="60.74 32.17 54.13 36.26 73.21 41.38 60.74 32.17"/><polygon class="cls-3" points="120.55 23.64 125.33 28.24 130.23 29.08 120.55 23.64"/><polygon class="cls-3" points="120.55 23.64 136.91 28.24 130.23 29.08 120.55 23.64"/><polygon class="cls-3" points="120.55 27.33 125.33 28.24 129.49 38.93 120.55 27.33"/><polygon class="cls-3" points="125.33 28.24 130.23 29.08 129.49 38.93 125.33 28.24"/><polygon class="cls-3" points="118.56 42.14 120.55 27.33 129.49 38.93 118.56 42.14"/><polygon class="cls-3" points="129.49 38.93 125.33 41.71 118.56 42.14 129.49 38.93"/><polygon class="cls-3" points="129.49 38.93 131.79 41.71 136.91 28.24 129.49 38.93"/><polygon class="cls-3" points="129.49 38.93 125.33 41.71 131.79 41.71 129.49 38.93"/><polygon class="cls-3" points="125.33 41.71 118.56 42.14 122.17 44.87 125.33 41.71"/><polygon class="cls-3" points="101.92 47.1 122.17 44.87 118.56 42.14 101.92 47.1"/><polygon class="cls-3" points="122.17 44.87 125.33 41.71 131.79 41.71 122.17 44.87"/><polygon class="cls-3" points="120.55 23.64 108.52 21.88 109.52 17.44 120.55 23.64"/><polygon class="cls-3" points="109.52 17.44 96.15 16.43 108.52 21.88 109.52 17.44"/><polygon class="cls-3" points="109.52 17.44 120.43 21.45 120.55 23.64 109.52 17.44"/><polygon class="cls-3" points="120.55 23.64 120.55 27.33 108.52 21.88 120.55 23.64"/><polygon class="cls-3" points="120.55 23.64 125.33 28.24 120.55 27.33 120.55 23.64"/><polygon class="cls-3" points="145.71 4.8 145.15 8.86 138.97 6.04 145.71 4.8"/><polygon class="cls-3" points="145.15 8.86 158.41 4.8 145.71 4.8 145.15 8.86"/><polygon class="cls-3" points="123.55 4.3 132.35 0.25 140.74 1.66 123.55 4.3"/><polygon class="cls-3" points="131.26 3.11 127.64 8.98 123.55 4.3 131.26 3.11"/><polygon class="cls-3" points="143.64 3.52 136.91 4.48 145.71 4.8 143.64 3.52"/><polygon class="cls-3" points="145.15 8.86 132.79 14.88 138.24 11.4 145.15 8.86"/><polygon class="cls-3" points="138.97 6.04 136.91 4.48 135.32 5.26 138.97 6.04"/><polygon class="cls-3" points="135.32 5.26 136.13 6.99 137.14 5.65 135.32 5.26"/><polygon class="cls-3" points="137.14 5.65 138.97 6.04 136.13 6.99 137.14 5.65"/><polygon class="cls-3" points="136.13 6.99 137.47 7.58 138.97 6.04 136.13 6.99"/><polygon class="cls-3" points="136.91 4.48 140.74 1.66 143.64 3.52 136.91 4.48"/><polygon class="cls-3" points="136.91 4.48 131.26 3.11 140.74 1.66 136.91 4.48"/><polygon class="cls-3" points="136.91 4.48 127.64 8.98 131.26 3.11 136.91 4.48"/><polygon class="cls-3" points="135.32 5.26 138.24 11.4 127.64 8.98 135.32 5.26"/><polygon class="cls-3" points="136.13 6.99 142.34 9.9 138.24 11.4 136.13 6.99"/><polygon class="cls-3" points="137.47 7.58 138.97 6.04 142.34 9.9 137.47 7.58"/><polygon class="cls-3" points="37.8 34.56 28.8 45.38 38.99 44.58 37.8 34.56"/><polygon class="cls-3" points="37.8 34.56 41.45 37.48 38.99 44.58 37.8 34.56"/><polygon class="cls-3" points="41.45 37.48 42.57 42.78 38.99 44.58 41.45 37.48"/><polygon class="cls-3" points="35.67 30.26 36.71 29.53 37.8 30.26 35.67 30.26"/><polygon class="cls-3" points="35.67 30.26 36.73 31.03 37.8 30.26 35.67 30.26"/><polygon class="cls-3" points="37.8 34.56 36.73 31.03 40.64 33.01 37.8 34.56"/><polygon class="cls-3" points="40.64 33.01 45.01 31.84 38.34 31.84 40.64 33.01"/><polygon class="cls-3" points="38.34 31.84 41.2 30.64 45.01 31.84 38.34 31.84"/><polygon class="cls-3" points="36.73 31.03 39.81 28.8 38.34 31.84 36.73 31.03"/><polygon class="cls-3" points="39.81 28.8 41.2 30.64 38.34 31.84 39.81 28.8"/><polygon class="cls-3" points="37.8 30.26 33.19 27.18 39.81 28.8 37.8 30.26"/><polygon class="cls-3" points="36.71 29.53 30.84 33.61 33.19 27.18 36.71 29.53"/><polygon class="cls-3" points="36.73 31.03 34.19 35.51 35.67 30.26 36.73 31.03"/><polygon class="cls-3" points="34.19 35.51 37.8 34.56 36.73 31.03 34.19 35.51"/><polygon class="cls-3" points="33.19 27.18 36.17 26.86 39.81 28.8 33.19 27.18"/><polygon class="cls-3" points="33.19 27.18 29.85 31.24 30.84 33.61 33.19 27.18"/><polygon class="cls-3" points="34.19 35.51 30.84 33.61 35.67 30.26 34.19 35.51"/><polygon class="cls-3" points="29.85 31.24 29.63 33.17 30.84 33.61 29.85 31.24"/><polygon class="cls-3" points="30.84 33.61 27.81 32.52 21.5 33.4 30.84 33.61"/><polygon class="cls-3" points="30.84 33.61 34.19 35.51 28.8 45.38 30.84 33.61"/><polygon class="cls-3" points="28.8 45.38 22.2 37.27 30.84 33.61 28.8 45.38"/><polygon class="cls-3" points="22.2 37.27 21.5 33.4 30.84 33.61 22.2 37.27"/><polygon class="cls-3" points="21.5 33.4 13.31 36.38 22.2 37.27 21.5 33.4"/><polygon class="cls-3" points="28.8 45.38 9.23 42.78 22.2 37.27 28.8 45.38"/><polygon class="cls-3" points="15.41 36.59 9.23 42.78 22.2 37.27 15.41 36.59"/><polygon class="cls-3" points="28.8 45.38 34.19 35.51 37.8 34.56 28.8 45.38"/></g></g></svg>