<svg xmlns="http://www.w3.org/2000/svg" viewBox="0 0 153.25 100.74"><defs><style>.cls-1{fill:#fcdcdc;}.cls-2{fill:#fff;stroke:#21231f;stroke-linecap:round;}.cls-2,.cls-3{stroke-linejoin:round;stroke-width:0.5px;}.cls-3{fill:#f26d6f;stroke:#fff;}</style></defs><g id="Layer_2" data-name="Layer 2"><g id="content"><polygon class="cls-1" points="0 79.03 61.37 77.24 76.04 74.85 153 69.06 152 77.48 89.42 100.74 55.44 94.53 9.98 90.69 25.54 82.73 0 79.03"/><polygon class="cls-2" points="106.6 16.31 104.28 9.42 102.27 16.27 106.6 16.31"/><polygon class="cls-2" points="106.6 16.31 107.91 10.55 104.28 9.42 106.6 16.31"/><polygon class="cls-2" points="104.28 9.42 101.56 11.61 102.27 16.27 104.28 9.42"/><polygon class="cls-2" points="107.91 10.55 108.18 18.24 106.6 16.31 107.91 10.55"/><polygon class="cls-2" points="102.27 16.27 100.86 19.28 101.56 11.61 102.27 16.27"/><polygon class="cls-2" points="106.6 16.31 106.4 18.1 104.14 16.28 106.6 16.31"/><polygon class="cls-2" points="104.14 16.28 102.27 16.27 101.63 17.67 104.14 16.28"/><polygon class="cls-2" points="101.63 17.67 102.94 19.08 102.34 17.28 101.63 17.67"/><polygon class="cls-2" points="106.4 18.1 105.45 19 105.37 17.27 106.4 18.1"/><polygon class="cls-2" points="105.37 17.27 102.34 17.28 104.14 16.28 105.37 17.27"/><polygon class="cls-2" points="105.37 17.27 102.94 19.08 105.45 19 105.37 17.27"/><polygon class="cls-2" points="105.4 17.3 102.34 17.28 102.94 19.08 105.4 17.3"/><polygon class="cls-2" points="106.6 16.31 106.13 20.55 108.18 18.24 106.6 16.31"/><polygon class="cls-2" points="106.4 18.1 104.06 20.29 106.13 20.55 106.4 18.1"/><polygon class="cls-2" points="104.06 20.29 101.63 17.67 100.86 19.28 104.06 20.29"/><polygon class="cls-2" points="100.86 19.28 101.45 21.01 104.06 20.29 100.86 19.28"/><polygon class="cls-2" points="106.13 20.55 107.25 20.89 108.18 18.24 106.13 20.55"/><polygon class="cls-2" points="106.13 20.55 104.26 21.47 107.25 20.89 106.13 20.55"/><polygon class="cls-2" points="104.26 21.47 101.45 21.01 104.06 20.29 104.26 21.47"/><polygon class="cls-2" points="104.26 21.47 106.13 20.55 104.06 20.29 104.26 21.47"/><polygon class="cls-2" points="107.91 10.55 108.96 9.29 108.98 9.9 107.91 10.55"/><polygon class="cls-2" points="107.91 10.55 109.15 10.39 108.98 9.9 107.91 10.55"/><polygon class="cls-2" points="109.15 10.39 110.04 9.77 108.98 9.9 109.15 10.39"/><polygon class="cls-2" points="110.04 9.77 108.96 9.29 108.98 9.9 110.04 9.77"/><polygon class="cls-2" points="100.96 10.63 100.13 9.28 100.12 10.06 100.96 10.63"/><polygon class="cls-2" points="100.96 10.63 99.67 10.37 100.12 10.06 100.96 10.63"/><polygon class="cls-2" points="100.12 10.06 99.09 9.39 99.67 10.37 100.12 10.06"/><polygon class="cls-2" points="100.12 10.06 100.13 9.28 99.09 9.39 100.12 10.06"/><polygon class="cls-2" points="98.63 6.84 101.56 11.61 104.28 9.42 98.63 6.84"/><polygon class="cls-2" points="107.91 10.55 110.78 7.12 104.28 9.42 107.91 10.55"/><polygon class="cls-2" points="110.78 7.12 104.88 0.25 104.28 9.42 110.78 7.12"/><polygon class="cls-2" points="104.28 9.42 98.63 6.84 104.88 0.25 104.28 9.42"/><polygon class="cls-2" points="108.96 9.29 116.79 12.82 116.33 8.76 108.96 9.29"/><polygon class="cls-2" points="108.96 9.29 113 4.46 116.33 8.76 108.96 9.29"/><polygon class="cls-2" points="110.78 7.12 113 4.46 111.79 2.4 110.78 7.12"/><polygon class="cls-2" points="111.79 2.4 108.38 0.69 110.78 7.12 111.79 2.4"/><polygon class="cls-2" points="108.38 0.69 104.88 0.25 110.78 7.12 108.38 0.69"/><polygon class="cls-2" points="93.52 10.03 98.63 6.84 96.7 3.7 93.52 10.03"/><polygon class="cls-2" points="98.63 6.84 98.38 1.5 96.7 3.7 98.63 6.84"/><polygon class="cls-2" points="98.38 1.5 101.67 0.59 98.63 6.84 98.38 1.5"/><polygon class="cls-2" points="104.88 0.25 101.67 0.59 98.63 6.84 104.88 0.25"/><polygon class="cls-2" points="100.96 10.63 98.7 12.97 101.56 11.61 100.96 10.63"/><polygon class="cls-2" points="100.96 10.63 99.67 10.37 98.7 12.97 100.96 10.63"/><polygon class="cls-2" points="99.67 10.37 99.09 9.39 96.61 9.68 99.67 10.37"/><polygon class="cls-2" points="93.52 10.03 94.25 20.89 101.45 21.01 93.52 10.03"/><polygon class="cls-2" points="116.79 12.82 114.03 21.69 107.25 20.89 116.79 12.82"/><polygon class="cls-2" points="107.91 10.55 109.15 10.39 110.8 12.44 107.91 10.55"/><polygon class="cls-2" points="110.04 9.77 110.8 12.44 112.88 11.04 110.04 9.77"/><polygon class="cls-2" points="110.8 12.44 108.18 18.24 107.91 10.55 110.8 12.44"/><polygon class="cls-2" points="101.56 11.61 98.7 12.97 100.86 19.28 101.56 11.61"/><polygon class="cls-2" points="110.8 12.44 116.79 12.82 112.88 11.04 110.8 12.44"/><polygon class="cls-2" points="98.7 12.97 93.52 10.03 101.45 21.01 98.7 12.97"/><polygon class="cls-2" points="104.26 21.47 104.49 28.46 109.66 24.81 104.26 21.47"/><polygon class="cls-2" points="109.66 24.81 114.03 21.69 107.25 20.89 109.66 24.81"/><polygon class="cls-2" points="104.26 21.47 104.49 28.46 98.3 26.17 104.26 21.47"/><polygon class="cls-2" points="98.3 26.17 101.45 21.01 104.26 21.47 98.3 26.17"/><polygon class="cls-2" points="98.3 26.17 101.45 21.01 94.25 20.89 98.3 26.17"/><polygon class="cls-2" points="113 4.46 115.67 1.42 111.79 2.4 113 4.46"/><polygon class="cls-2" points="115.67 1.42 117.87 3.67 113 4.46 115.67 1.42"/><polygon class="cls-2" points="117.87 3.67 115.86 8.14 113 4.46 117.87 3.67"/><polygon class="cls-2" points="96.7 3.7 92.16 2.37 94.96 6.94 96.7 3.7"/><polygon class="cls-2" points="94.96 6.94 91.27 5.08 93.52 10.03 94.96 6.94"/><polygon class="cls-2" points="91.27 5.08 92.16 2.37 94.96 6.94 91.27 5.08"/><polygon class="cls-2" points="103.1 27.94 89.24 50.57 86.49 32.86 103.1 27.94"/><polygon class="cls-2" points="103.1 27.94 86.15 21.68 86.49 32.86 103.1 27.94"/><polygon class="cls-2" points="98.3 26.17 94.25 20.89 86.15 21.68 98.3 26.17"/><polygon class="cls-2" points="92.32 7.41 91.95 13.17 93.52 10.03 92.32 7.41"/><polygon class="cls-2" points="91.95 13.17 94.25 20.89 93.52 10.03 91.95 13.17"/><polygon class="cls-2" points="94.25 20.89 91.95 13.17 79.62 11.36 94.25 20.89"/><polygon class="cls-2" points="92.32 7.41 79.62 11.36 91.95 13.17 92.32 7.41"/><polygon class="cls-2" points="97.86 2.21 94.01 2.91 96.7 3.7 97.86 2.21"/><polygon class="cls-2" points="79.62 11.36 85.67 4.88 92.32 7.41 79.62 11.36"/><polygon class="cls-2" points="85.67 4.88 91.27 5.08 92.32 7.41 85.67 4.88"/><polygon class="cls-2" points="91.76 3.58 85.67 4.88 91.27 5.08 91.76 3.58"/><polygon class="cls-2" points="98.7 12.97 96.61 9.68 99.67 10.37 98.7 12.97"/><polygon class="cls-2" points="98.7 12.97 96.61 9.68 93.52 10.03 98.7 12.97"/><polygon class="cls-2" points="93.52 10.03 100.13 9.28 98.63 6.84 93.52 10.03"/><polygon class="cls-2" points="94.25 20.89 77.03 22.56 79.62 11.36 94.25 20.89"/><polygon class="cls-2" points="77.03 22.56 86.49 32.86 86.15 21.68 77.03 22.56"/><polygon class="cls-2" points="77.03 22.56 74 31.13 86.49 32.86 77.03 22.56"/><polygon class="cls-2" points="112.44 31.39 103.1 27.94 99.78 33.42 112.44 31.39"/><polygon class="cls-2" points="99.08 53.48 99.87 33.4 93.85 43.12 99.08 53.48"/><polygon class="cls-2" points="112.44 31.39 113.65 21.96 104.49 28.46 112.44 31.39"/><polygon class="cls-2" points="99.08 53.48 112.44 31.39 99.87 33.4 99.08 53.48"/><polygon class="cls-2" points="99.08 53.48 101.73 60.93 112.1 57.91 99.08 53.48"/><polygon class="cls-2" points="112.1 57.91 111.33 45.21 99.08 53.48 112.1 57.91"/><polygon class="cls-2" points="111.33 45.21 112.44 31.39 99.08 53.48 111.33 45.21"/><polygon class="cls-2" points="79.62 11.36 40.09 21.89 77.03 22.56 79.62 11.36"/><polygon class="cls-2" points="40.09 21.89 27.72 41.12 47.58 37.46 40.09 21.89"/><polygon class="cls-2" points="47.58 37.46 77.03 22.56 40.09 21.89 47.58 37.46"/><polygon class="cls-2" points="74 31.13 77.03 22.56 63.16 29.58 74 31.13"/><polygon class="cls-2" points="60.01 49.54 27.72 41.12 47.58 37.46 60.01 49.54"/><polygon class="cls-2" points="69.07 41.7 47.58 37.46 60.01 49.54 69.07 41.7"/><polygon class="cls-2" points="47.58 37.46 69.07 41.7 57.7 32.34 47.58 37.46"/><polygon class="cls-2" points="40.09 21.89 30.61 31.01 27.72 41.12 40.09 21.89"/><polygon class="cls-2" points="75.73 12.4 52.4 16.81 40.09 21.89 75.73 12.4"/><polygon class="cls-2" points="60.01 49.54 38.49 60.87 27.72 41.12 60.01 49.54"/><polygon class="cls-2" points="54.2 52.6 43.24 66.64 38.49 60.87 54.2 52.6"/><polygon class="cls-2" points="40.55 78.68 48.78 59.54 31.83 81.24 40.55 78.68"/><polygon class="cls-2" points="27.72 41.12 28.77 64.69 38.49 60.87 27.72 41.12"/><polygon class="cls-2" points="28.77 64.69 31.83 81.24 38.49 60.87 28.77 64.69"/><polygon class="cls-2" points="31.83 81.24 43.24 66.64 38.49 60.87 31.83 81.24"/><polygon class="cls-2" points="89.24 50.57 86.32 65.41 78.4 67.71 89.24 50.57"/><polygon class="cls-2" points="89.24 50.57 79.71 48.24 75.48 58.96 89.24 50.57"/><polygon class="cls-2" points="89.24 50.57 86.49 32.86 79.71 48.24 89.24 50.57"/><polygon class="cls-2" points="69.07 41.7 63.16 29.58 57.7 32.34 69.07 41.7"/><polygon class="cls-2" points="69.07 41.7 86.49 32.86 63.16 29.58 69.07 41.7"/><polygon class="cls-2" points="60.01 49.54 79.71 48.24 69.07 41.7 60.01 49.54"/><polygon class="cls-2" points="79.71 48.24 86.49 32.86 69.07 41.7 79.71 48.24"/><polygon class="cls-2" points="75.48 58.96 71.73 48.77 79.71 48.24 75.48 58.96"/><polygon class="cls-2" points="46.71 64.35 53.94 74.81 48.78 59.54 46.71 64.35"/><polygon class="cls-2" points="54.2 52.6 61.91 62.94 60.01 49.54 54.2 52.6"/><polygon class="cls-2" points="54.2 52.6 48.78 59.54 61.91 62.94 54.2 52.6"/><polygon class="cls-2" points="48.78 59.54 53.94 74.81 61.91 62.94 48.78 59.54"/><polygon class="cls-2" points="63.22 72.12 61.91 62.94 53.94 74.81 63.22 72.12"/><polygon class="cls-2" points="78.4 67.71 75.48 58.96 89.24 50.57 78.4 67.71"/><polygon class="cls-2" points="61.91 62.94 62.57 49.38 60.01 49.54 61.91 62.94"/><polygon class="cls-2" points="140.85 30.48 138.71 30.54 139.81 26.81 140.85 30.48"/><polygon class="cls-2" points="140.44 29.04 142.21 26.51 139.81 26.81 140.44 29.04"/><polygon class="cls-2" points="139.81 26.81 137.26 26.5 139.14 29.08 139.81 26.81"/><polygon class="cls-2" points="142.21 26.51 139.64 20.8 139.81 26.81 142.21 26.51"/><polygon class="cls-2" points="139.64 20.8 137.26 26.5 139.81 26.81 139.64 20.8"/><polygon class="cls-2" points="142.21 26.51 143.1 26.8 141.53 27.48 142.21 26.51"/><polygon class="cls-2" points="141.53 27.48 142.66 27.67 143.1 26.8 141.53 27.48"/><polygon class="cls-2" points="137.26 26.5 136.61 26.98 137.89 27.37 137.26 26.5"/><polygon class="cls-2" points="137.89 27.37 137.02 27.61 136.61 26.98 137.89 27.37"/><polygon class="cls-2" points="142.21 26.51 144.39 21.83 139.64 20.8 142.21 26.51"/><polygon class="cls-2" points="137.26 26.5 139.64 20.8 135.19 21.7 137.26 26.5"/><polygon class="cls-2" points="142.21 26.51 146.51 27.91 146.14 24.9 142.21 26.51"/><polygon class="cls-2" points="137.26 26.5 133.25 29.43 133.03 24.92 137.26 26.5"/><polygon class="cls-2" points="146.14 24.9 144.39 21.83 142.21 26.51 146.14 24.9"/><polygon class="cls-2" points="137.26 26.5 135.19 21.7 133.03 24.92 137.26 26.5"/><polygon class="cls-2" points="139.83 32.15 138.49 31.01 136.83 33.91 139.83 32.15"/><polygon class="cls-2" points="139.83 32.15 141.03 31.07 142.68 33.88 139.83 32.15"/><polygon class="cls-2" points="142.68 33.88 139.88 33.9 139.83 32.15 142.68 33.88"/><polygon class="cls-2" points="139.88 33.9 136.83 33.91 139.83 32.15 139.88 33.9"/><polygon class="cls-2" points="141.53 27.48 145.02 28.05 141.03 31.07 141.53 27.48"/><polygon class="cls-2" points="137.89 27.37 134.99 28.16 138.49 31.01 137.89 27.37"/><polygon class="cls-2" points="141.53 27.48 140.44 29.04 141.03 31.07 141.53 27.48"/><polygon class="cls-2" points="139.14 29.08 137.89 27.37 138.49 31.01 139.14 29.08"/><polygon class="cls-2" points="137.02 27.61 136.61 26.98 134.99 28.16 137.02 27.61"/><polygon class="cls-2" points="142.66 27.67 143.1 26.8 145.02 28.05 142.66 27.67"/><polygon class="cls-2" points="145.02 28.05 146.51 27.91 143.1 26.8 145.02 28.05"/><polygon class="cls-2" points="146.51 27.91 145.71 31.66 145.02 28.05 146.51 27.91"/><polygon class="cls-2" points="145.71 31.66 141.03 31.07 145.02 28.05 145.71 31.66"/><polygon class="cls-2" points="134.99 28.16 133.25 29.43 136.83 33.91 134.99 28.16"/><polygon class="cls-2" points="145.71 31.66 142.68 33.88 141.03 31.07 145.71 31.66"/><polygon class="cls-2" points="135.19 21.7 133.12 21.36 134.39 22.89 135.19 21.7"/><polygon class="cls-2" points="133.12 21.36 132.07 22.47 134.39 22.89 133.12 21.36"/><polygon class="cls-2" points="132.07 22.47 133.03 24.92 134.39 22.89 132.07 22.47"/><polygon class="cls-2" points="144.39 21.83 145.92 20.83 144.99 22.88 144.39 21.83"/><polygon class="cls-2" points="146.14 24.9 147.48 22.81 144.99 22.88 146.14 24.9"/><polygon class="cls-2" points="147.48 22.81 145.92 20.83 144.99 22.88 147.48 22.81"/><polygon class="cls-2" points="147.48 22.81 147.23 21.35 145.92 20.83 147.48 22.81"/><polygon class="cls-2" points="133.12 21.36 132.29 21.55 132.07 22.47 133.12 21.36"/><polygon class="cls-2" points="145.71 31.66 143.23 38.45 142.68 33.88 145.71 31.66"/><polygon class="cls-2" points="143.23 38.45 139.43 44.24 138.42 41.5 143.23 38.45"/><polygon class="cls-2" points="133.25 29.43 125.76 29.76 133.06 25.94 133.25 29.43"/><polygon class="cls-2" points="125.76 29.76 117.76 35.74 124.14 34.27 125.76 29.76"/><polygon class="cls-2" points="117.76 35.74 114.89 42.63 117.86 39.55 117.76 35.74"/><polygon class="cls-2" points="114.89 42.63 116.19 50.95 117.86 39.55 114.89 42.63"/><polygon class="cls-2" points="116.19 50.95 115.53 56.86 121.52 55.02 116.19 50.95"/><polygon class="cls-2" points="136.65 50.37 129.89 43.07 138.49 48.38 136.65 50.37"/><polygon class="cls-2" points="132.21 45.57 125.03 47.71 129.89 43.07 132.21 45.57"/><polygon class="cls-2" points="124.67 42.35 125.03 47.71 122.99 50.76 124.67 42.35"/><polygon class="cls-2" points="122.99 50.76 121.52 55.02 116.19 50.95 122.99 50.76"/><polygon class="cls-2" points="138.42 41.5 140.59 47.76 138.49 48.38 138.42 41.5"/><polygon class="cls-2" points="136.65 50.37 140.22 49.26 138.49 48.38 136.65 50.37"/><polygon class="cls-2" points="140.22 49.26 142.24 48.66 140.59 47.76 140.22 49.26"/><polygon class="cls-2" points="140.22 49.26 140.59 47.76 138.49 48.38 140.22 49.26"/><polygon class="cls-2" points="142.24 48.66 143.92 48.14 142.44 47.71 142.24 48.66"/><polygon class="cls-2" points="142.44 47.71 140.59 47.76 142.24 48.66 142.44 47.71"/><polygon class="cls-2" points="133.25 29.43 130.85 37.73 136.83 33.91 133.25 29.43"/><polygon class="cls-2" points="129.89 43.07 138.42 41.5 130.85 37.73 129.89 43.07"/><polygon class="cls-2" points="130.85 37.73 124.14 34.27 133.25 29.43 130.85 37.73"/><polygon class="cls-2" points="124.14 34.27 125.76 29.76 133.25 29.43 124.14 34.27"/><polygon class="cls-2" points="124.14 34.27 125.03 47.71 130.85 37.73 124.14 34.27"/><polygon class="cls-2" points="125.03 47.71 130.85 37.73 129.89 43.07 125.03 47.71"/><polygon class="cls-2" points="122.99 50.76 117.86 39.55 124.67 42.35 122.99 50.76"/><polygon class="cls-2" points="117.86 39.55 124.14 34.27 117.76 35.74 117.86 39.55"/><polygon class="cls-2" points="122.99 50.76 117.86 39.55 116.19 50.95 122.99 50.76"/><polygon class="cls-2" points="138.71 30.54 139.83 32.15 140.85 30.48 138.71 30.54"/><polygon class="cls-2" points="142.68 33.88 136.83 33.91 143.23 38.45 142.68 33.88"/><polygon class="cls-2" points="133.3 46.76 132.21 51.74 135.26 48.87 133.3 46.76"/><polygon class="cls-2" points="130.85 37.73 143.23 38.45 136.83 33.91 130.85 37.73"/><polygon class="cls-2" points="130.85 37.73 138.42 41.5 143.23 38.45 130.85 37.73"/><polygon class="cls-2" points="126.92 47.14 126.36 50.53 121.52 55.02 126.92 47.14"/><polygon class="cls-2" points="122.99 50.76 123.66 51.9 121.52 55.02 122.99 50.76"/><polygon class="cls-2" points="125.03 47.71 123.66 51.9 122.99 50.76 125.03 47.71"/><polygon class="cls-2" points="126.36 50.53 124.15 54.21 121.52 55.02 126.36 50.53"/><polygon class="cls-2" points="135.26 48.87 136.65 50.37 132.21 51.74 135.26 48.87"/><polygon class="cls-3" points="42.84 77.57 128.93 52.61 101.78 71.2 42.84 77.57"/><polygon class="cls-3" points="115.01 62.28 153 64.87 128.93 52.61 115.01 62.28"/><polygon class="cls-3" points="42.84 77.57 26.82 82.74 87.32 80.22 42.84 77.57"/><polygon class="cls-3" points="101.78 71.2 137.91 81.18 115.01 62.28 101.78 71.2"/><polygon class="cls-3" points="101.78 71.2 87.32 80.22 137.91 81.18 101.78 71.2"/><polygon class="cls-3" points="128.93 52.61 147.82 48.31 153 64.87 128.93 52.61"/><polygon class="cls-3" points="137.91 81.18 153 64.87 115.01 62.28 137.91 81.18"/><polygon class="cls-3" points="101.78 71.2 42.84 77.57 87.32 80.22 101.78 71.2"/></g></g></svg>